<svg width="16" height="16" viewBox="0 0 16 16" fill="none" xmlns="http://www.w3.org/2000/svg">
<g clip-path="url(#clip0_149_3809)">
<path d="M13.2412 2.32353C13.2412 1.79815 12.8137 1.37069 12.2883 1.37069H11.7248V2.14203C11.7248 2.27338 11.6173 2.38084 11.4859 2.38084C11.3546 2.38084 11.2471 2.27338 11.2471 2.14203V1.3683V0.59696C11.2471 0.465617 11.1397 0.358154 11.0083 0.358154C10.877 0.358154 10.7695 0.465617 10.7695 0.59696V1.3683H10.0698V2.13965C10.0698 2.27099 9.96236 2.37845 9.83102 2.37845C9.69968 2.37845 9.59221 2.27099 9.59221 2.13965V1.3683V0.59696C9.59221 0.465617 9.48475 0.358154 9.35341 0.358154C9.22206 0.358154 9.1146 0.465617 9.1146 0.59696V1.3683H8.4149V2.13965C8.4149 2.27099 8.30744 2.37845 8.17609 2.37845C8.04475 2.37845 7.93729 2.27099 7.93729 2.13965V1.3683V0.59696C7.93729 0.465617 7.82983 0.358154 7.69848 0.358154C7.56714 0.358154 7.45968 0.465617 7.45968 0.59696V1.3683H6.75997V2.13965C6.75997 2.27099 6.65251 2.37845 6.52117 2.37845C6.38983 2.37845 6.28236 2.27099 6.28236 2.13965V1.3683V0.59696C6.28236 0.465617 6.1749 0.358154 6.04356 0.358154C5.91221 0.358154 5.80475 0.465617 5.80475 0.59696V1.3683H5.10505V2.13965C5.10505 2.27099 4.99759 2.37845 4.86624 2.37845C4.7349 2.37845 4.62744 2.27099 4.62744 2.13965V1.3683V0.59696C4.62744 0.465617 4.51997 0.358154 4.38863 0.358154C4.25729 0.358154 4.14983 0.465617 4.14983 0.59696V1.3683H3.45012V2.13965C3.45012 2.27099 3.34266 2.37845 3.21132 2.37845C3.07997 2.37845 2.97251 2.27099 2.97251 2.13965V1.3683V0.59696C2.97251 0.465617 2.86505 0.358154 2.73371 0.358154C2.60236 0.358154 2.4949 0.465617 2.4949 0.59696V1.3683H1.44893C0.923556 1.3683 0.496094 1.79577 0.496094 2.32114V3.27398H13.2436V2.32353H13.2412Z" fill="white"/>
<path d="M7.28516 6.08706L10.6404 7.1187L13.998 6.08706L10.6404 5.05542L7.28516 6.08706Z" fill="white"/>
<path d="M14.8816 14.6317H7.22309C6.77891 14.6317 6.42786 14.2258 6.52339 13.7649C6.59264 13.4305 6.90309 13.1989 7.24458 13.1989H14.884C15.0965 13.1989 15.2685 13.0269 15.2685 12.8144C15.2685 12.6019 15.0965 12.4299 14.884 12.4299H7.27324C6.48279 12.4299 5.79025 13.0246 5.73772 13.815C5.6804 14.6795 6.36816 15.4031 7.2207 15.4031H14.8792C15.0917 15.4031 15.2637 15.2311 15.2637 15.0186C15.2661 14.8061 15.0941 14.6317 14.8816 14.6317Z" fill="white"/>
<path d="M7.51729 8.98139C7.30475 8.98139 7.13281 9.15333 7.13281 9.36587C7.13281 9.57841 7.30475 9.75035 7.51729 9.75035H13.7812C14.2253 9.75035 14.5764 10.1563 14.4809 10.6172C14.4116 10.9515 14.1012 11.1832 13.7597 11.1832H7.51729C7.30475 11.1832 7.13281 11.3551 7.13281 11.5677C7.13281 11.7802 7.30475 11.9521 7.51729 11.9521H13.7286C14.5191 11.9521 15.2116 11.3575 15.2642 10.5671C15.3215 9.70259 14.6337 8.979 13.7812 8.979H7.51729V8.98139Z" fill="white"/>
<path d="M13.7592 6.66032V7.13793C13.6398 7.21674 13.5586 7.35047 13.5586 7.50569C13.5586 7.74689 13.7544 7.9451 13.998 7.9451C14.2392 7.9451 14.4374 7.74928 14.4374 7.50569C14.4374 7.35286 14.3586 7.21674 14.2368 7.13793V6.51465L13.7592 6.66032Z" fill="white"/>
<path d="M7.24309 13.6787C7.1213 13.6787 7.01145 13.7575 6.98995 13.8626C6.97085 13.9581 7.00428 14.0274 7.03772 14.068C7.08309 14.1229 7.14995 14.1563 7.2216 14.1563H14.4383C14.4144 13.9987 14.4144 13.8387 14.4383 13.6811H7.24309V13.6787Z" fill="white"/>
<path d="M10.6406 7.62036L8.36719 6.92065V8.50394H12.9164V6.92065L10.6406 7.62036Z" fill="white"/>
<path d="M6.78385 12.0144C6.6955 11.8687 6.64535 11.6968 6.65729 11.5105C6.68833 11.0472 7.10624 10.7057 7.56953 10.7057H13.7618C13.8836 10.7057 13.9934 10.6269 14.0149 10.5219C14.034 10.4263 14.0006 10.3571 13.9671 10.3165C13.9218 10.2616 13.8549 10.2281 13.7833 10.2281H7.54326C7.13251 10.2281 6.75759 9.94872 6.674 9.54753C6.55938 8.9935 6.98445 8.50395 7.51938 8.50395H7.89191V6.7726L6.40415 6.3141C6.17968 6.24484 6.17968 5.92723 6.40415 5.85798L10.643 4.5541L13.2436 5.3541V3.75171H0.496094V12.5422C0.496094 13.0675 0.923556 13.495 1.44893 13.495H5.30803C5.47042 12.769 6.05072 12.1959 6.78385 12.0144ZM4.66565 7.78992H6.3349V9.45917H4.66565V7.78992ZM3.59341 12.0669H1.92654V10.3977H3.5958V12.0669H3.59341ZM3.59341 9.45917H1.92654V7.78992H3.5958V9.45917H3.59341ZM3.59341 6.85141H1.92654V5.18216H3.5958V6.85141H3.59341ZM4.66565 12.0669V10.3977H6.3349V12.0669H4.66565Z" fill="white"/>
</g>
<defs>
<clipPath id="clip0_149_3809">
<rect width="15.7612" height="16" fill="white"/>
</clipPath>
</defs>
</svg>
