<svg width="16" height="16" viewBox="0 0 16 16" fill="none" xmlns="http://www.w3.org/2000/svg">
<path d="M6.4875 0.334954C6.44688 0.522454 6.35313 0.909955 6.28125 1.2037L6.15313 1.73495L5.8125 1.8662L5.475 2.00058L4.74063 1.54745C4.3375 1.29745 3.99375 1.09433 3.97813 1.09433C3.96563 1.09433 3.50312 1.54433 2.95625 2.0912C2.2875 2.75995 1.96563 3.1037 1.97812 3.13495C1.9875 3.15996 2.1875 3.49433 2.425 3.87871C2.6625 4.26308 2.85625 4.60058 2.85312 4.62558C2.85 4.69433 2.625 5.2287 2.58125 5.26933C2.5625 5.28808 2.23125 5.3787 1.84375 5.4662C1.45625 5.55683 1.08125 5.64433 1.00938 5.66308L0.875 5.69433V7.12871C0.875 8.46308 0.878125 8.55996 0.93125 8.57558C0.959375 8.58183 1.32188 8.66933 1.73438 8.76621C2.52188 8.94746 2.625 8.97871 2.625 9.02871C2.625 9.04746 2.68125 9.19433 2.75 9.3537L2.875 9.64745L2.4125 10.4037L1.94687 11.16L2.34063 11.5412C3.44062 12.6068 3.3375 12.5193 3.36875 12.435C3.76875 11.3881 4.44375 10.585 5.35938 10.0725C5.55938 9.95995 5.77187 9.86308 5.9875 9.78183L6.06875 9.75058L5.79063 9.45995C5.25938 8.90996 4.9875 8.33496 4.90313 7.57871C4.80313 6.70058 5.11875 5.78183 5.74062 5.12558C6.3625 4.46933 7.15 4.12558 8.03125 4.12558C10.25 4.12558 11.7781 6.38183 10.95 8.43183C10.7969 8.81621 10.5875 9.13495 10.2719 9.45995C10.0344 9.70683 10 9.75371 10.05 9.76933C11.175 10.1631 12.1531 11.1068 12.6094 12.2318C12.675 12.3975 12.7406 12.5287 12.75 12.5256C12.7781 12.5131 14.0156 11.185 14.025 11.1537C14.0312 11.1412 13.8313 10.7943 13.5781 10.3881L13.1219 9.64745L13.25 9.3537C13.3188 9.19433 13.375 9.04746 13.375 9.03183C13.375 8.98496 13.4125 8.97246 14.225 8.77871C14.6594 8.67558 15.0406 8.58496 15.0719 8.57558C15.1219 8.55996 15.125 8.46308 15.125 7.12558V5.69433L14.5719 5.56308C14.2656 5.4912 13.8844 5.40058 13.725 5.36308C13.5688 5.32558 13.425 5.28183 13.4094 5.26308C13.3719 5.22558 13.15 4.68495 13.1469 4.62558C13.1438 4.60058 13.3375 4.26308 13.575 3.87871C13.8125 3.49433 14.0125 3.15996 14.0219 3.13495C14.0344 3.1037 13.7125 2.75995 13.0437 2.0912C12.4969 1.54433 12.0375 1.09433 12.025 1.09433C12.0094 1.09433 11.6687 1.29745 11.2625 1.54745L10.525 2.00371L10.1844 1.86933L9.84688 1.73495L9.71875 1.2037C9.64688 0.909955 9.55313 0.522454 9.5125 0.334954L9.43125 0.000579834H8H6.56875L6.4875 0.334954Z" fill="white"/>
<path d="M7.64098 5.10686C7.20035 5.19436 6.87535 5.35686 6.5566 5.65374C6.10035 6.07561 5.87848 6.55374 5.85035 7.17561C5.82223 7.83499 6.01285 8.32561 6.48473 8.80061C6.72848 9.04749 6.8066 9.10686 7.06285 9.22874C7.4441 9.40999 7.62848 9.45374 8.0316 9.45374C8.4316 9.45374 8.6191 9.40999 8.98473 9.23499C9.52848 8.97249 9.91285 8.54124 10.1129 7.96311C10.2316 7.62561 10.2504 7.11311 10.1597 6.75061C10.0535 6.31936 9.90348 6.05999 9.57848 5.73186C9.35035 5.50061 9.24723 5.42561 9.0316 5.31936C8.88473 5.24749 8.6816 5.16624 8.57848 5.14124C8.3066 5.07249 7.89723 5.05686 7.64098 5.10686Z" fill="white"/>
<path d="M6.86094 10.5162C6.53594 10.585 6.26406 10.6819 5.93594 10.8475C5.03906 11.3069 4.42656 12.0912 4.16406 13.11C4.08594 13.4162 4.08281 13.4537 4.07031 14.71L4.06694 14.9885C4.0602 15.5455 4.50985 16.0006 5.06687 16.0006H8.02656H10.9984C11.5507 16.0006 11.9984 15.5529 11.9984 15.0006V14.8975C11.9984 13.7412 11.9766 13.4162 11.8734 13.0287C11.6078 12.0162 10.8297 11.1131 9.88906 10.7319C9.32344 10.5006 9.25156 10.4881 8.10781 10.4819C7.32031 10.4756 7.02656 10.4819 6.86094 10.5162Z" fill="white"/>
</svg>
