<svg width="40" height="40" viewBox="0 0 40 40" fill="none" xmlns="http://www.w3.org/2000/svg">
<path d="M0 6C0 2.68629 2.68629 0 6 0H34C37.3137 0 40 2.68629 40 6V34C40 37.3137 37.3137 40 34 40H6C2.68629 40 0 37.3137 0 34V6Z" fill="#14E9E2" fill-opacity="0.2"/>
<path d="M20.0013 8.33203C15.2496 8.33203 11.668 10.1237 11.668 12.4987V27.4987C11.668 29.8737 15.2496 31.6654 20.0013 31.6654C24.753 31.6654 28.3346 29.8737 28.3346 27.4987V12.4987C28.3346 10.1237 24.753 8.33203 20.0013 8.33203ZM20.0013 9.9987C24.0696 9.9987 26.668 11.4787 26.668 12.4987C26.668 13.5187 24.0696 14.9987 20.0013 14.9987C15.933 14.9987 13.3346 13.5187 13.3346 12.4987C13.3346 11.4787 15.9313 9.9987 20.0013 9.9987ZM20.0013 29.9987C15.9313 29.9987 13.3346 28.517 13.3346 27.4987V22.5604C14.8296 23.5487 17.2146 24.1654 20.0013 24.1654C22.788 24.1654 25.173 23.5487 26.668 22.5604V27.4987C26.668 28.517 24.0696 29.9987 20.0013 29.9987ZM20.0013 22.4987C15.9313 22.4987 13.3346 21.0187 13.3346 19.9987V15.0337C15.358 16.1966 17.6695 16.7624 20.0013 16.6654C22.3331 16.7624 24.6446 16.1966 26.668 15.0337V19.9987C26.668 21.0187 24.0713 22.4987 20.0013 22.4987Z" fill="#14E9E2"/>
</svg>
