<svg width="40" height="40" viewBox="0 0 40 40" fill="none" xmlns="http://www.w3.org/2000/svg">
<path d="M0 6C0 2.68629 2.68629 0 6 0H34C37.3137 0 40 2.68629 40 6V34C40 37.3137 37.3137 40 34 40H6C2.68629 40 0 37.3137 0 34V6Z" fill="#FFD648" fill-opacity="0.2"/>
<path d="M28.8333 30C26.4444 30 24.1159 29.4674 21.8478 28.4022C19.5796 27.337 17.5704 25.9296 15.82 24.18C14.0696 22.4304 12.6622 20.4211 11.5978 18.1522C10.5333 15.8833 10.0007 13.5548 10 11.1667C10 10.8333 10.1111 10.5556 10.3333 10.3333C10.5556 10.1111 10.8333 10 11.1667 10H15.6667C15.9259 10 16.1574 10.0833 16.3611 10.25C16.5648 10.4167 16.6852 10.6296 16.7222 10.8889L17.4444 14.7778C17.4815 15.037 17.4767 15.2733 17.43 15.4867C17.3833 15.7 17.277 15.8896 17.1111 16.0556L14.4167 18.7778C15.1944 20.1111 16.1715 21.3611 17.3478 22.5278C18.5241 23.6944 19.8156 24.7037 21.2222 25.5556L23.8333 22.9444C24 22.7778 24.2178 22.6526 24.4867 22.5689C24.7556 22.4852 25.0193 22.4622 25.2778 22.5L29.1111 23.2778C29.3704 23.3333 29.5833 23.4585 29.75 23.6533C29.9167 23.8481 30 24.0748 30 24.3333V28.8333C30 29.1667 29.8889 29.4444 29.6667 29.6667C29.4444 29.8889 29.1667 30 28.8333 30ZM13.3611 16.6667L15.1944 14.8333L14.7222 12.2222H12.25C12.3426 12.9815 12.4722 13.7315 12.6389 14.4722C12.8056 15.213 13.0463 15.9444 13.3611 16.6667ZM23.3056 26.6111C24.0278 26.9259 24.7641 27.1759 25.5144 27.3611C26.2648 27.5463 27.0193 27.6667 27.7778 27.7222V25.2778L25.1667 24.75L23.3056 26.6111Z" fill="#FFD648"/>
</svg>
