<svg width="16" height="17" viewBox="0 0 16 17" fill="none" xmlns="http://www.w3.org/2000/svg">
<mask id="mask0_149_3786" style="mask-type:alpha" maskUnits="userSpaceOnUse" x="0" y="0" width="16" height="17">
<rect y="0.173828" width="16" height="16" fill="white"/>
</mask>
<g mask="url(#mask0_149_3786)">
<path d="M3.33333 14.1738C2.96667 14.1738 2.65267 14.0434 2.39133 13.7825C2.13044 13.5212 2 13.2072 2 12.8405V3.50716C2 3.14049 2.13044 2.82649 2.39133 2.56516C2.65267 2.30427 2.96667 2.17383 3.33333 2.17383H6C6.36667 2.17383 6.68067 2.30427 6.942 2.56516C7.20289 2.82649 7.33333 3.14049 7.33333 3.50716V12.8405C7.33333 13.2072 7.20289 13.5212 6.942 13.7825C6.68067 14.0434 6.36667 14.1738 6 14.1738H3.33333ZM10 6.8405C9.63333 6.8405 9.31956 6.70983 9.05867 6.44849C8.79733 6.18761 8.66667 5.87383 8.66667 5.50716V3.50716C8.66667 3.14049 8.79733 2.82649 9.05867 2.56516C9.31956 2.30427 9.63333 2.17383 10 2.17383H12.6667C13.0333 2.17383 13.3473 2.30427 13.6087 2.56516C13.8696 2.82649 14 3.14049 14 3.50716V5.50716C14 5.87383 13.8696 6.18761 13.6087 6.44849C13.3473 6.70983 13.0333 6.8405 12.6667 6.8405H10ZM10 14.1738C9.63333 14.1738 9.31956 14.0434 9.05867 13.7825C8.79733 13.5212 8.66667 13.2072 8.66667 12.8405V9.50716C8.66667 9.14049 8.79733 8.82649 9.05867 8.56516C9.31956 8.30427 9.63333 8.17383 10 8.17383H12.6667C13.0333 8.17383 13.3473 8.30427 13.6087 8.56516C13.8696 8.82649 14 9.14049 14 9.50716V12.8405C14 13.2072 13.8696 13.5212 13.6087 13.7825C13.3473 14.0434 13.0333 14.1738 12.6667 14.1738H10Z" fill="#F49B36"/>
</g>
</svg>
