<svg width="17" height="18" viewBox="0 0 17 18" fill="none" xmlns="http://www.w3.org/2000/svg">
<g clip-path="url(#clip0_149_1332)">
<path d="M9.11448 9.88247C9.11448 10.0457 9.04965 10.2022 8.93424 10.3176C8.81883 10.433 8.66231 10.4979 8.4991 10.4979C8.33589 10.4979 8.17936 10.433 8.06396 10.3176C7.94855 10.2022 7.88371 10.0457 7.88371 9.88247C7.88371 9.71926 7.94855 9.56274 8.06396 9.44733C8.17936 9.33193 8.33589 9.26709 8.4991 9.26709C8.66231 9.26709 8.81883 9.33193 8.93424 9.44733C9.04965 9.56274 9.11448 9.71926 9.11448 9.88247ZM4.80679 12.344C4.97 12.344 5.12653 12.2792 5.24193 12.1638C5.35734 12.0484 5.42218 11.8918 5.42218 11.7286C5.42218 11.5654 5.35734 11.4089 5.24193 11.2935C5.12653 11.1781 4.97 11.1132 4.80679 11.1132C4.64358 11.1132 4.48706 11.1781 4.37165 11.2935C4.25624 11.4089 4.19141 11.5654 4.19141 11.7286C4.19141 11.8918 4.25624 12.0484 4.37165 12.1638C4.48706 12.2792 4.64358 12.344 4.80679 12.344ZM5.42218 13.5748C5.42218 13.738 5.35734 13.8945 5.24193 14.0099C5.12653 14.1253 4.97 14.1902 4.80679 14.1902C4.64358 14.1902 4.48706 14.1253 4.37165 14.0099C4.25624 13.8945 4.19141 13.738 4.19141 13.5748C4.19141 13.4116 4.25624 13.255 4.37165 13.1396C4.48706 13.0242 4.64358 12.9594 4.80679 12.9594C4.97 12.9594 5.12653 13.0242 5.24193 13.1396C5.35734 13.255 5.42218 13.4116 5.42218 13.5748ZM6.65295 12.344C6.81616 12.344 6.97268 12.2792 7.08809 12.1638C7.20349 12.0484 7.26833 11.8918 7.26833 11.7286C7.26833 11.5654 7.20349 11.4089 7.08809 11.2935C6.97268 11.1781 6.81616 11.1132 6.65295 11.1132C6.48973 11.1132 6.33321 11.1781 6.2178 11.2935C6.1024 11.4089 6.03756 11.5654 6.03756 11.7286C6.03756 11.8918 6.1024 12.0484 6.2178 12.1638C6.33321 12.2792 6.48973 12.344 6.65295 12.344ZM7.26833 13.5748C7.26833 13.738 7.20349 13.8945 7.08809 14.0099C6.97268 14.1253 6.81616 14.1902 6.65295 14.1902C6.48973 14.1902 6.33321 14.1253 6.2178 14.0099C6.1024 13.8945 6.03756 13.738 6.03756 13.5748C6.03756 13.4116 6.1024 13.255 6.2178 13.1396C6.33321 13.0242 6.48973 12.9594 6.65295 12.9594C6.81616 12.9594 6.97268 13.0242 7.08809 13.1396C7.20349 13.255 7.26833 13.4116 7.26833 13.5748ZM8.4991 12.344C8.66231 12.344 8.81883 12.2792 8.93424 12.1638C9.04965 12.0484 9.11448 11.8918 9.11448 11.7286C9.11448 11.5654 9.04965 11.4089 8.93424 11.2935C8.81883 11.1781 8.66231 11.1132 8.4991 11.1132C8.33589 11.1132 8.17936 11.1781 8.06396 11.2935C7.94855 11.4089 7.88371 11.5654 7.88371 11.7286C7.88371 11.8918 7.94855 12.0484 8.06396 12.1638C8.17936 12.2792 8.33589 12.344 8.4991 12.344ZM9.11448 13.5748C9.11448 13.738 9.04965 13.8945 8.93424 14.0099C8.81883 14.1253 8.66231 14.1902 8.4991 14.1902C8.33589 14.1902 8.17936 14.1253 8.06396 14.0099C7.94855 13.8945 7.88371 13.738 7.88371 13.5748C7.88371 13.4116 7.94855 13.255 8.06396 13.1396C8.17936 13.0242 8.33589 12.9594 8.4991 12.9594C8.66231 12.9594 8.81883 13.0242 8.93424 13.1396C9.04965 13.255 9.11448 13.4116 9.11448 13.5748ZM10.3453 12.344C10.5085 12.344 10.665 12.2792 10.7804 12.1638C10.8958 12.0484 10.9606 11.8918 10.9606 11.7286C10.9606 11.5654 10.8958 11.4089 10.7804 11.2935C10.665 11.1781 10.5085 11.1132 10.3453 11.1132C10.182 11.1132 10.0255 11.1781 9.91011 11.2935C9.7947 11.4089 9.72987 11.5654 9.72987 11.7286C9.72987 11.8918 9.7947 12.0484 9.91011 12.1638C10.0255 12.2792 10.182 12.344 10.3453 12.344ZM10.9606 13.5748C10.9606 13.738 10.8958 13.8945 10.7804 14.0099C10.665 14.1253 10.5085 14.1902 10.3453 14.1902C10.182 14.1902 10.0255 14.1253 9.91011 14.0099C9.7947 13.8945 9.72987 13.738 9.72987 13.5748C9.72987 13.4116 9.7947 13.255 9.91011 13.1396C10.0255 13.0242 10.182 12.9594 10.3453 12.9594C10.5085 12.9594 10.665 13.0242 10.7804 13.1396C10.8958 13.255 10.9606 13.4116 10.9606 13.5748ZM12.1914 12.344C12.3546 12.344 12.5111 12.2792 12.6265 12.1638C12.742 12.0484 12.8068 11.8918 12.8068 11.7286C12.8068 11.5654 12.742 11.4089 12.6265 11.2935C12.5111 11.1781 12.3546 11.1132 12.1914 11.1132C12.0282 11.1132 11.8717 11.1781 11.7563 11.2935C11.6409 11.4089 11.576 11.5654 11.576 11.7286C11.576 11.8918 11.6409 12.0484 11.7563 12.1638C11.8717 12.2792 12.0282 12.344 12.1914 12.344ZM10.9606 9.88247C10.9606 10.0457 10.8958 10.2022 10.7804 10.3176C10.665 10.433 10.5085 10.4979 10.3453 10.4979C10.182 10.4979 10.0255 10.433 9.91011 10.3176C9.7947 10.2022 9.72987 10.0457 9.72987 9.88247C9.72987 9.71926 9.7947 9.56274 9.91011 9.44733C10.0255 9.33193 10.182 9.26709 10.3453 9.26709C10.5085 9.26709 10.665 9.33193 10.7804 9.44733C10.8958 9.56274 10.9606 9.71926 10.9606 9.88247ZM12.1914 10.4979C12.3546 10.4979 12.5111 10.433 12.6265 10.3176C12.742 10.2022 12.8068 10.0457 12.8068 9.88247C12.8068 9.71926 12.742 9.56274 12.6265 9.44733C12.5111 9.33193 12.3546 9.26709 12.1914 9.26709C12.0282 9.26709 11.8717 9.33193 11.7563 9.44733C11.6409 9.56274 11.576 9.71926 11.576 9.88247C11.576 10.0457 11.6409 10.2022 11.7563 10.3176C11.8717 10.433 12.0282 10.4979 12.1914 10.4979Z" fill="white"/>
<path fill-rule="evenodd" clip-rule="evenodd" d="M4.19231 1.26709C4.35552 1.26709 4.51204 1.33192 4.62745 1.44733C4.74286 1.56274 4.80769 1.71926 4.80769 1.88247V3.11324H12.1923V1.88247C12.1923 1.71926 12.2571 1.56274 12.3725 1.44733C12.488 1.33192 12.6445 1.26709 12.8077 1.26709C12.9709 1.26709 13.1274 1.33192 13.2428 1.44733C13.3582 1.56274 13.4231 1.71926 13.4231 1.88247V3.11324H14.0385C14.6913 3.11324 15.3174 3.37258 15.779 3.83421C16.2407 4.29584 16.5 4.92194 16.5 5.57478V14.8056C16.5 15.4584 16.2407 16.0845 15.779 16.5461C15.3174 17.0078 14.6913 17.2671 14.0385 17.2671H2.96154C2.3087 17.2671 1.6826 17.0078 1.22097 16.5461C0.75934 16.0845 0.5 15.4584 0.5 14.8056V5.57478C0.5 4.92194 0.75934 4.29584 1.22097 3.83421C1.6826 3.37258 2.3087 3.11324 2.96154 3.11324H3.57692V1.88247C3.57692 1.71926 3.64176 1.56274 3.75716 1.44733C3.87257 1.33192 4.0291 1.26709 4.19231 1.26709ZM15.2692 8.65171C15.2692 8.32528 15.1396 8.01223 14.9087 7.78142C14.6779 7.55061 14.3649 7.42094 14.0385 7.42094H2.96154C2.63512 7.42094 2.32207 7.55061 2.09125 7.78142C1.86044 8.01223 1.73077 8.32528 1.73077 8.65171V14.8056C1.73077 15.132 1.86044 15.445 2.09125 15.6758C2.32207 15.9067 2.63512 16.0363 2.96154 16.0363H14.0385C14.3649 16.0363 14.6779 15.9067 14.9087 15.6758C15.1396 15.445 15.2692 15.132 15.2692 14.8056V8.65171Z" fill="white"/>
</g>
<defs>
<clipPath id="clip0_149_1332">
<rect width="17" height="17" fill="white" transform="translate(0 0.76709)"/>
</clipPath>
</defs>
</svg>
