<svg width="16" height="17" viewBox="0 0 16 17" fill="none" xmlns="http://www.w3.org/2000/svg">
<path d="M13.8047 5.91332V12.1867C13.8047 13.8267 12.4647 15.1667 10.8247 15.1667H5.17141C3.53141 15.1667 2.19141 13.8267 2.19141 12.1867V5.91332C2.19141 4.77332 2.83141 3.77999 3.77141 3.27999C4.09807 3.10665 4.50474 3.33999 4.50474 3.71332C4.50474 4.77332 5.37141 5.63999 6.43141 5.63999H9.56474C10.6247 5.63999 11.4914 4.77332 11.4914 3.71332C11.4914 3.33999 11.8914 3.10665 12.2247 3.27999C13.1647 3.77999 13.8047 4.77332 13.8047 5.91332Z" fill="white"/>
<path d="M9.56521 1.8335H6.43187C5.73854 1.8335 5.17188 2.3935 5.17188 3.08683V3.7135C5.17188 4.40683 5.73188 4.96683 6.42521 4.96683H9.56521C10.2585 4.96683 10.8185 4.40683 10.8185 3.7135V3.08683C10.8252 2.3935 10.2585 1.8335 9.56521 1.8335Z" fill="white"/>
</svg>
