<svg width="16" height="16" viewBox="0 0 16 16" fill="none" xmlns="http://www.w3.org/2000/svg">
<path d="M10.8326 0H4.77931C1.75266 0 1 0.808707 1 4.03553V13.0514C1 15.1813 2.16902 15.6857 3.58626 14.1644L3.59427 14.1564C4.25084 13.4598 5.25172 13.5158 5.82022 14.2765L6.62893 15.3574C7.27749 16.2142 8.32641 16.2142 8.97498 15.3574L9.78369 14.2765C10.3602 13.5078 11.3611 13.4518 12.0176 14.1564C13.4429 15.6777 14.6039 15.1733 14.6039 13.0434V4.03553C14.6119 0.808707 13.8593 0 10.8326 0ZM4.427 8.00701C3.98661 8.00701 3.6263 7.64669 3.6263 7.20631C3.6263 6.76592 3.98661 6.4056 4.427 6.4056C4.86738 6.4056 5.2277 6.76592 5.2277 7.20631C5.2277 7.64669 4.86738 8.00701 4.427 8.00701ZM4.427 4.8042C3.98661 4.8042 3.6263 4.44389 3.6263 4.0035C3.6263 3.56312 3.98661 3.2028 4.427 3.2028C4.86738 3.2028 5.2277 3.56312 5.2277 4.0035C5.2277 4.44389 4.86738 4.8042 4.427 4.8042ZM11.1929 7.80683H6.78907C6.46078 7.80683 6.18854 7.53459 6.18854 7.20631C6.18854 6.87802 6.46078 6.60578 6.78907 6.60578H11.1929C11.5212 6.60578 11.7934 6.87802 11.7934 7.20631C11.7934 7.53459 11.5212 7.80683 11.1929 7.80683ZM11.1929 4.60403H6.78907C6.46078 4.60403 6.18854 4.33179 6.18854 4.0035C6.18854 3.67522 6.46078 3.40298 6.78907 3.40298H11.1929C11.5212 3.40298 11.7934 3.67522 11.7934 4.0035C11.7934 4.33179 11.5212 4.60403 11.1929 4.60403Z" fill="white"/>
</svg>
