<svg width="40" height="40" viewBox="0 0 40 40" fill="none" xmlns="http://www.w3.org/2000/svg">
<path d="M0 6C0 2.68629 2.68629 0 6 0H34C37.3137 0 40 2.68629 40 6V34C40 37.3137 37.3137 40 34 40H6C2.68629 40 0 37.3137 0 34V6Z" fill="#635BFF" fill-opacity="0.2"/>
<path fill-rule="evenodd" clip-rule="evenodd" d="M19.8417 30.2101L20.643 29.3072C21.5522 28.2659 22.37 27.278 23.0976 26.3383L23.6982 25.5459C26.2061 22.1669 27.4608 19.485 27.4608 17.5027C27.4608 13.2716 24.05 9.8418 19.8417 9.8418C15.6335 9.8418 12.2227 13.2716 12.2227 17.5027C12.2227 19.485 13.4773 22.1669 15.9852 25.5459L16.5858 26.3383C17.6238 27.6683 18.7099 28.9589 19.8417 30.2101Z" stroke="#635BFF" stroke-width="1.14286" stroke-linecap="round" stroke-linejoin="round"/>
<path d="M19.8426 20.6363C21.5959 20.6363 23.0172 19.215 23.0172 17.4617C23.0172 15.7084 21.5959 14.2871 19.8426 14.2871C18.0893 14.2871 16.668 15.7084 16.668 17.4617C16.668 19.215 18.0893 20.6363 19.8426 20.6363Z" stroke="#635BFF" stroke-width="1.14286" stroke-linecap="round" stroke-linejoin="round"/>
</svg>
