<svg width="40" height="40" viewBox="0 0 40 40" fill="none" xmlns="http://www.w3.org/2000/svg">
<path d="M0 6C0 2.68629 2.68629 0 6 0H34C37.3137 0 40 2.68629 40 6V34C40 37.3137 37.3137 40 34 40H6C2.68629 40 0 37.3137 0 34V6Z" fill="#36C76C" fill-opacity="0.2"/>
<path d="M11.1128 28.8891C10.5017 28.8891 9.9784 28.6713 9.54285 28.2358C9.10729 27.8002 8.88989 27.2773 8.89063 26.6669V13.3336C8.89063 12.7224 9.1084 12.1991 9.54396 11.7636C9.97952 11.328 10.5025 11.1106 11.1128 11.1113H28.8906C29.5017 11.1113 30.0251 11.3291 30.4606 11.7647C30.8962 12.2002 31.1136 12.7232 31.1128 13.3336V26.6669C31.1128 27.278 30.8951 27.8013 30.4595 28.2369C30.024 28.6724 29.501 28.8898 28.8906 28.8891H11.1128ZM20.0017 21.1113L11.1128 15.5558V26.6669H28.8906V15.5558L20.0017 21.1113ZM20.0017 18.8891L28.8906 13.3336H11.1128L20.0017 18.8891ZM11.1128 15.5558V13.3336V26.6669V15.5558Z" fill="#36C76C"/>
</svg>
