<svg width="16" height="16" viewBox="0 0 16 16" fill="none" xmlns="http://www.w3.org/2000/svg">
<g clip-path="url(#clip0_149_1341)">
<path d="M9.33203 4.66667V0.306667C9.94873 0.539557 10.5089 0.900874 10.9754 1.36667L13.298 3.69067C13.7644 4.15659 14.1259 4.7166 14.3587 5.33333H9.9987C9.82189 5.33333 9.65232 5.2631 9.52729 5.13807C9.40227 5.01305 9.33203 4.84348 9.33203 4.66667ZM14.6654 6.99V12.6667C14.6643 13.5504 14.3128 14.3976 13.6879 15.0225C13.063 15.6474 12.2158 15.9989 11.332 16H4.66536C3.78163 15.9989 2.9344 15.6474 2.30951 15.0225C1.68462 14.3976 1.33309 13.5504 1.33203 12.6667V3.33333C1.33309 2.4496 1.68462 1.60237 2.30951 0.97748C2.9344 0.352588 3.78163 0.00105857 4.66536 0L7.67536 0C7.78403 0 7.89136 0.00866667 7.9987 0.016V4.66667C7.9987 5.1971 8.20941 5.70581 8.58448 6.08088C8.95956 6.45595 9.46827 6.66667 9.9987 6.66667H14.6494C14.6567 6.774 14.6654 6.88133 14.6654 6.99ZM9.33203 12.6667C9.33203 12.4899 9.26179 12.3203 9.13677 12.1953C9.01174 12.0702 8.84218 12 8.66536 12H5.33203C5.15522 12 4.98565 12.0702 4.86063 12.1953C4.7356 12.3203 4.66536 12.4899 4.66536 12.6667C4.66536 12.8435 4.7356 13.013 4.86063 13.1381C4.98565 13.2631 5.15522 13.3333 5.33203 13.3333H8.66536C8.84218 13.3333 9.01174 13.2631 9.13677 13.1381C9.26179 13.013 9.33203 12.8435 9.33203 12.6667ZM11.332 10C11.332 9.82319 11.2618 9.65362 11.1368 9.5286C11.0117 9.40357 10.8422 9.33333 10.6654 9.33333H5.33203C5.15522 9.33333 4.98565 9.40357 4.86063 9.5286C4.7356 9.65362 4.66536 9.82319 4.66536 10C4.66536 10.1768 4.7356 10.3464 4.86063 10.4714C4.98565 10.5964 5.15522 10.6667 5.33203 10.6667H10.6654C10.8422 10.6667 11.0117 10.5964 11.1368 10.4714C11.2618 10.3464 11.332 10.1768 11.332 10Z" fill="white"/>
</g>
<defs>
<clipPath id="clip0_149_1341">
<rect width="16" height="16" fill="white"/>
</clipPath>
</defs>
</svg>
