<svg width="16" height="16" viewBox="0 0 16 16" fill="none" xmlns="http://www.w3.org/2000/svg">
<path d="M14.0236 9.99209L13.2236 8.66408C13.0556 8.36808 12.9036 7.80807 12.9036 7.48007V5.45605C12.9036 3.57603 11.7996 1.95202 10.2076 1.19201C9.79159 0.456004 9.02358 0 8.14357 0C7.27157 0 6.48756 0.472004 6.07155 1.21601C4.51154 1.99202 3.43153 3.60003 3.43153 5.45605V7.48007C3.43153 7.80807 3.27953 8.36808 3.11153 8.65608L2.30352 9.99209C1.98352 10.5281 1.91152 11.1201 2.11152 11.6641C2.30352 12.2001 2.75952 12.6161 3.35153 12.8161C4.90354 13.3441 6.53556 13.6001 8.16757 13.6001C9.79959 13.6001 11.4316 13.3441 12.9836 12.8241C13.5436 12.6401 13.9756 12.2161 14.1836 11.6641C14.3916 11.1121 14.3356 10.5041 14.0236 9.99209Z" fill="white"/>
<path d="M10.4146 14.4079C10.0786 15.3359 9.19056 15.9999 8.15055 15.9999C7.51855 15.9999 6.89454 15.7439 6.45454 15.2879C6.19853 15.0479 6.00653 14.7279 5.89453 14.3999C5.99853 14.4159 6.10253 14.4239 6.21453 14.4399C6.39854 14.4639 6.59054 14.4879 6.78254 14.5039C7.23854 14.5439 7.70255 14.5679 8.16655 14.5679C8.62256 14.5679 9.07856 14.5439 9.52656 14.5039C9.69457 14.4879 9.86257 14.4799 10.0226 14.4559C10.1506 14.4399 10.2786 14.4239 10.4146 14.4079Z" fill="white"/>
</svg>
