<svg width="386" height="261" viewBox="0 0 386 261" fill="none" xmlns="http://www.w3.org/2000/svg">
<path d="M346.659 92.7362C339 88.2344 330.828 84.4576 322.873 80.8061C301.743 71.1057 282.056 59.7834 264.369 44.6138C216.082 3.19793 139.445 -16.0676 81.456 16.2112C31.9568 43.7641 4.3138 100.936 12.396 156.906C19.1026 203.35 60.8538 232.916 104.253 242.323C138.412 249.727 173.648 246.073 207.632 239.57C224.743 236.296 241.699 232.277 258.696 228.467C271.748 225.541 284.695 221.335 298.175 221.014C302.514 220.911 306.745 221.547 311.059 221.826C315.041 222.083 319.04 222.028 323.015 221.673C341.446 220.027 359.735 211.871 371.799 197.582C390.385 175.567 388.473 141.789 374.11 118.08C367.405 107.012 357.552 99.1402 346.659 92.7362Z" fill="#081028" fill-opacity="0.5"/>
<path d="M200.891 162.023L334.733 239.087L384.621 210.188L248.885 133.469L200.891 162.023Z" fill="#2C314B"/>
<path d="M281.259 182.161V202.501C281.259 203.83 280.554 205.057 279.403 205.719L275.398 208.042L261.874 215.889L232.574 199.022L246.131 191.197L250.179 188.858C251.335 188.191 252.046 186.959 252.041 185.624L251.96 165.289L281.259 182.161Z" fill="white" stroke="#2C314B" stroke-width="0.556052" stroke-miterlimit="10"/>
<path d="M281.258 182.16V202.5C281.258 203.83 280.552 205.056 279.401 205.719L275.396 208.041L246.129 191.196L250.178 188.857C251.334 188.19 252.044 186.958 252.039 185.623L251.958 165.288L281.258 182.16Z" fill="#2C314B" stroke="#2C314B" stroke-width="0.556052" stroke-miterlimit="10"/>
<path d="M339.77 78.3186L209.136 2.89741C207.471 1.93656 205.987 1.84536 205.013 2.48037L200.227 5.41521C200.855 6.04355 202.606 7.02999 203.82 8.2444V147.525C203.82 149.132 204.678 150.617 206.07 151.42L338.82 228.064L338.231 231.881L342.949 228.965L342.948 228.962C344.16 228.477 345.084 227.31 345.084 225.82V86.7027C345.085 83.7673 342.705 80.0134 339.77 78.3186Z" fill="white" stroke="#2C314B" stroke-width="0.556052" stroke-miterlimit="10" stroke-linecap="round" stroke-linejoin="round"/>
<path d="M340.132 89.728V228.847C340.132 231.449 337.313 233.078 335.061 231.777L268.746 193.493L203.049 155.565L201.119 154.447C199.729 153.641 198.867 152.156 198.867 150.549V8.17191C198.867 5.23596 201.247 4.22951 204.183 5.92546L334.816 81.3428C337.752 83.0387 340.132 86.7921 340.132 89.728Z" fill="#2C314B" stroke="#2C314B" stroke-width="0.556052" stroke-miterlimit="10" stroke-linecap="round" stroke-linejoin="round"/>
<path d="M340.136 206.666V228.846C340.136 231.449 337.311 233.078 335.059 231.777L282.512 201.439L216.709 163.449L201.118 154.447C199.727 153.64 198.871 152.156 198.871 150.549V125.51L340.136 206.666Z" fill="white" stroke="#2C314B" stroke-width="0.556052" stroke-miterlimit="10"/>
<path d="M204.695 12.4922L335.497 87.8149L335.985 199.157L205.549 124.112L204.695 12.4922Z" fill="#D8DCF6" stroke="#1A004F" stroke-width="0.556052" stroke-miterlimit="10"/>
<path d="M222.957 67.7158L259.679 88.8563" stroke="#2C314B" stroke-width="0.556052" stroke-miterlimit="10" stroke-linecap="round" stroke-linejoin="round"/>
<path d="M222.957 74.9404L259.679 96.081" stroke="#2C314B" stroke-width="0.556052" stroke-miterlimit="10" stroke-linecap="round" stroke-linejoin="round"/>
<path d="M222.957 82.166L259.679 103.306" stroke="#2C314B" stroke-width="0.556052" stroke-miterlimit="10" stroke-linecap="round" stroke-linejoin="round"/>
<path d="M222.957 89.3906L259.679 110.531" stroke="#2C314B" stroke-width="0.556052" stroke-miterlimit="10" stroke-linecap="round" stroke-linejoin="round"/>
<path d="M222.957 96.6152L259.679 117.756" stroke="#2C314B" stroke-width="0.556052" stroke-miterlimit="10" stroke-linecap="round" stroke-linejoin="round"/>
<path d="M335.546 98.7636L204.779 23.4853L204.695 12.4922L335.496 87.8149L335.546 98.7636Z" fill="#596BFB" stroke="#1A004F" stroke-width="0.556052" stroke-miterlimit="10"/>
<path d="M217.673 93.1525L198.867 82.3318V41.2451L217.495 51.9714L217.673 93.1525Z" fill="#2C314B" stroke="#2C314B" stroke-width="0.556052" stroke-miterlimit="10" stroke-linecap="round" stroke-linejoin="round"/>
<path d="M165.242 13.7324L213.618 41.5895L213.798 82.7679L165.558 55.0131L165.242 13.7324Z" fill="white" stroke="#2C314B" stroke-width="0.556052" stroke-miterlimit="10" stroke-linecap="round" stroke-linejoin="round"/>
<path d="M165.332 13.3555V22.0949L213.707 49.9275V41.2125L165.332 13.3555Z" fill="#F49B36" stroke="#1A004F" stroke-width="0.556052" stroke-miterlimit="10"/>
<path d="M181.18 42.0186L197.188 51.2373L197.248 57.8371L181.284 48.6523L181.18 42.0186Z" fill="#F49B36" stroke="#1A004F" stroke-width="0.556052" stroke-miterlimit="10"/>
<path d="M205.076 38.3149C204.127 37.7666 203.355 38.207 203.352 39.2986C203.349 40.3895 204.116 41.7185 205.065 42.2668C206.016 42.8156 206.788 42.3752 206.791 41.2842C206.794 40.1927 206.027 38.8637 205.076 38.3149Z" fill="white" stroke="#2C314B" stroke-width="0.556052" stroke-miterlimit="10" stroke-linecap="round" stroke-linejoin="round"/>
<path d="M200.713 36.103C199.764 35.5547 198.992 35.9951 198.988 37.0872C198.985 38.1782 199.752 39.5071 200.702 40.0554C201.652 40.6042 202.425 40.1638 202.428 39.0728C202.431 37.9808 201.663 36.6518 200.713 36.103Z" fill="white" stroke="#2C314B" stroke-width="0.556052" stroke-miterlimit="10" stroke-linecap="round" stroke-linejoin="round"/>
<path d="M209.573 41.062C208.623 40.5137 207.851 40.9541 207.848 42.0462C207.844 43.1371 208.612 44.4661 209.561 45.0144C210.512 45.5632 211.284 45.1228 211.287 44.0318C211.29 42.9397 210.523 41.6108 209.573 41.062Z" fill="white" stroke="#2C314B" stroke-width="0.556052" stroke-miterlimit="10" stroke-linecap="round" stroke-linejoin="round"/>
<path d="M130.883 61.3438L179.258 89.2008L179.438 130.38L131.199 102.625L130.883 61.3438Z" fill="white" stroke="#2C314B" stroke-width="0.556052" stroke-miterlimit="10" stroke-linecap="round" stroke-linejoin="round"/>
<path d="M130.973 60.9668V69.7068L179.348 97.5394V88.8239L130.973 60.9668Z" fill="#F49B36" stroke="#1A004F" stroke-width="0.556052" stroke-miterlimit="10"/>
<path d="M135.637 92.8633L151.646 102.082L151.706 108.682L135.741 99.497L135.637 92.8633Z" fill="#596BFB" stroke="#1A004F" stroke-width="0.556052" stroke-miterlimit="10"/>
<path d="M154.25 103.672L170.259 112.891L170.319 119.49L154.355 110.306L154.25 103.672Z" fill="#F49B36" stroke="#1A004F" stroke-width="0.556052" stroke-miterlimit="10"/>
<path d="M170.713 85.9272C169.764 85.3789 168.992 85.8193 168.988 86.9114C168.985 88.0024 169.752 89.3313 170.702 89.8796C171.652 90.4284 172.425 89.988 172.428 88.8971C172.431 87.805 171.663 86.4755 170.713 85.9272Z" fill="white" stroke="#2C314B" stroke-width="0.556052" stroke-miterlimit="10" stroke-linecap="round" stroke-linejoin="round"/>
<path d="M166.354 83.7153C165.405 83.167 164.632 83.6074 164.629 84.6995C164.626 85.7905 165.393 87.1194 166.343 87.6677C167.293 88.2165 168.065 87.7761 168.068 86.6851C168.071 85.5931 167.304 84.2635 166.354 83.7153Z" fill="white" stroke="#2C314B" stroke-width="0.556052" stroke-miterlimit="10" stroke-linecap="round" stroke-linejoin="round"/>
<path d="M175.213 88.6743C174.264 88.126 173.492 88.5664 173.488 89.6585C173.486 90.7494 174.253 92.0784 175.202 92.6267C176.152 93.1755 176.925 92.7351 176.928 91.6441C176.931 90.552 176.163 89.2231 175.213 88.6743Z" fill="white" stroke="#2C314B" stroke-width="0.556052" stroke-miterlimit="10" stroke-linecap="round" stroke-linejoin="round"/>
<path d="M136.184 85.292L172.906 106.432" stroke="#2C314B" stroke-width="0.556052" stroke-miterlimit="10" stroke-linecap="round" stroke-linejoin="round"/>
<path d="M311.949 166.017L275.953 145.324L275.746 93.5731L275.703 83.2617L311.613 103.949L311.667 114.228L311.949 166.017Z" fill="white" stroke="#2C314B" stroke-width="0.556052" stroke-miterlimit="10" stroke-linecap="round" stroke-linejoin="round"/>
<path d="M311.667 114.228L275.746 93.5731L275.703 83.2617L311.613 103.949L311.667 114.228Z" fill="#F49B36" stroke="#1A004F" stroke-width="0.556052" stroke-miterlimit="10"/>
<path d="M292.785 114.841C288.077 112.122 284.249 114.307 284.23 119.716C284.219 125.129 288.021 131.719 292.73 134.438C297.438 137.156 301.269 134.973 301.285 129.562C301.3 124.151 297.494 117.559 292.785 114.841ZM297.62 131.805C297.921 132.326 297.919 132.883 297.617 133.055C297.467 133.141 297.27 133.114 297.072 133C296.875 132.886 296.677 132.685 296.529 132.428L292.754 125.89L288.958 128.057C288.805 128.14 288.607 128.114 288.409 128C288.215 127.888 288.018 127.686 287.866 127.427C287.569 126.909 287.571 126.351 287.869 126.177L291.669 124.012L287.894 117.474C287.597 116.959 287.599 116.398 287.897 116.224C288.048 116.138 288.246 116.165 288.444 116.279C288.641 116.393 288.839 116.594 288.989 116.854L292.76 123.39L296.559 121.225C296.711 121.139 296.907 121.166 297.104 121.279C297.301 121.393 297.497 121.593 297.647 121.853C297.948 122.374 297.946 122.935 297.644 123.103L293.848 125.271L297.62 131.805Z" fill="#2C314B"/>
<path d="M297.105 121.277C296.908 121.164 296.711 121.137 296.56 121.223L292.76 123.388L288.989 116.852C288.839 116.591 288.642 116.391 288.444 116.277C288.247 116.163 288.049 116.135 287.898 116.222C287.599 116.396 287.597 116.957 287.894 117.472L291.669 124.01L287.87 126.175C287.571 126.35 287.569 126.907 287.867 127.425C288.018 127.684 288.216 127.886 288.41 127.998C288.607 128.112 288.805 128.138 288.958 128.055L292.754 125.887L296.529 132.425C296.678 132.683 296.875 132.884 297.073 132.998C297.27 133.112 297.468 133.139 297.618 133.053C297.92 132.881 297.922 132.324 297.621 131.803L293.85 125.267L297.646 123.1C297.948 122.931 297.95 122.37 297.649 121.85C297.498 121.591 297.301 121.391 297.105 121.277Z" fill="white"/>
<path d="M311.626 98.7423C309.406 97.4611 307.603 98.4909 307.594 101.04C307.588 103.591 309.38 106.697 311.599 107.978C313.818 109.259 315.624 108.23 315.631 105.68C315.639 103.13 313.845 100.023 311.626 98.7423ZM313.904 106.737C314.046 106.982 314.045 107.245 313.903 107.327C313.832 107.367 313.739 107.354 313.646 107.3C313.553 107.247 313.46 107.151 313.39 107.03L311.611 103.949L309.822 104.971C309.75 105.01 309.657 104.997 309.564 104.943C309.473 104.891 309.379 104.795 309.308 104.674C309.168 104.43 309.169 104.167 309.31 104.084L311.1 103.064L309.321 99.9828C309.181 99.7404 309.182 99.4757 309.323 99.3934C309.394 99.3528 309.488 99.3656 309.581 99.4196C309.673 99.4735 309.767 99.568 309.837 99.6903L311.615 102.771L313.405 101.751C313.476 101.71 313.569 101.723 313.662 101.776C313.755 101.829 313.847 101.924 313.918 102.046C314.06 102.292 314.059 102.556 313.917 102.636L312.128 103.657L313.904 106.737Z" fill="#2C314B"/>
<path d="M313.661 101.777C313.569 101.723 313.476 101.71 313.405 101.751L311.614 102.771L309.837 99.6909C309.766 99.568 309.673 99.4735 309.58 99.4201C309.487 99.3662 309.394 99.3534 309.323 99.394C309.182 99.4763 309.181 99.741 309.321 99.9834L311.1 103.064L309.309 104.085C309.169 104.167 309.167 104.43 309.308 104.674C309.379 104.797 309.472 104.892 309.564 104.944C309.657 104.998 309.75 105.01 309.823 104.971L311.611 103.95L313.39 107.031C313.46 107.152 313.553 107.247 313.646 107.301C313.739 107.355 313.832 107.367 313.903 107.327C314.045 107.246 314.046 106.984 313.904 106.738L312.127 103.657L313.916 102.636C314.059 102.556 314.06 102.292 313.918 102.046C313.847 101.925 313.754 101.83 313.661 101.777Z" fill="white"/>
<path d="M317.567 182.532L281.57 161.84L281.364 110.089L281.32 99.7773L317.23 120.465L317.285 130.743L317.567 182.532Z" fill="white" stroke="#2C314B" stroke-width="0.556052" stroke-miterlimit="10" stroke-linecap="round" stroke-linejoin="round"/>
<path d="M317.285 130.743L281.364 110.089L281.32 99.7773L317.23 120.465L317.285 130.743Z" fill="#F49B36" stroke="#1A004F" stroke-width="0.556052" stroke-miterlimit="10"/>
<path d="M298.403 131.357C293.694 128.638 289.867 130.823 289.848 136.231C289.836 141.644 293.638 148.234 298.347 150.953C303.056 153.671 306.886 151.488 306.902 146.077C306.917 140.667 303.111 134.075 298.403 131.357ZM303.237 148.321C303.538 148.842 303.536 149.399 303.234 149.571C303.084 149.656 302.887 149.63 302.689 149.516C302.492 149.402 302.294 149.2 302.146 148.943L298.371 142.405L294.575 144.572C294.422 144.656 294.224 144.629 294.026 144.515C293.832 144.403 293.635 144.201 293.483 143.942C293.186 143.424 293.188 142.866 293.486 142.692L297.286 140.527L293.511 133.989C293.214 133.475 293.216 132.913 293.514 132.739C293.666 132.653 293.863 132.68 294.061 132.794C294.258 132.908 294.456 133.109 294.606 133.369L298.377 139.905L302.176 137.74C302.328 137.654 302.525 137.681 302.721 137.794C302.918 137.908 303.115 138.108 303.265 138.368C303.565 138.889 303.563 139.45 303.261 139.618L299.465 141.785L303.237 148.321Z" fill="#2C314B"/>
<path d="M302.722 137.794C302.525 137.68 302.328 137.653 302.177 137.739L298.377 139.905L294.606 133.368C294.456 133.108 294.259 132.907 294.061 132.793C293.864 132.679 293.666 132.652 293.515 132.738C293.216 132.913 293.214 133.474 293.511 133.988L297.286 140.526L293.487 142.692C293.188 142.866 293.187 143.423 293.484 143.942C293.635 144.201 293.833 144.402 294.027 144.514C294.224 144.628 294.422 144.655 294.575 144.572L298.371 142.405L302.146 148.943C302.295 149.2 302.492 149.401 302.69 149.515C302.887 149.629 303.085 149.656 303.235 149.57C303.537 149.398 303.539 148.841 303.238 148.32L299.467 141.784L303.263 139.617C303.565 139.449 303.567 138.888 303.266 138.367C303.115 138.107 302.919 137.908 302.722 137.794Z" fill="white"/>
<path d="M317.247 115.258C315.028 113.977 313.224 115.007 313.215 117.556C313.209 120.107 315.001 123.212 317.221 124.493C319.44 125.775 321.245 124.746 321.253 122.196C321.259 119.646 319.465 116.539 317.247 115.258ZM319.525 123.253C319.667 123.499 319.666 123.762 319.523 123.843C319.453 123.883 319.36 123.871 319.266 123.817C319.174 123.763 319.08 123.668 319.011 123.546L317.232 120.465L315.443 121.487C315.371 121.526 315.278 121.513 315.185 121.46C315.094 121.407 315 121.312 314.929 121.19C314.788 120.946 314.79 120.683 314.93 120.6L316.721 119.58L314.942 116.498C314.802 116.256 314.803 115.991 314.944 115.909C315.015 115.868 315.108 115.881 315.201 115.935C315.294 115.989 315.387 116.084 315.458 116.206L317.235 119.287L319.026 118.266C319.097 118.226 319.19 118.238 319.282 118.292C319.375 118.345 319.468 118.44 319.538 118.562C319.68 118.807 319.679 119.072 319.537 119.151L317.748 120.173L319.525 123.253Z" fill="#2C314B"/>
<path d="M319.283 118.292C319.19 118.239 319.097 118.226 319.026 118.267L317.235 119.287L315.458 116.207C315.387 116.084 315.295 115.989 315.201 115.936C315.108 115.882 315.015 115.869 314.944 115.91C314.803 115.992 314.802 116.257 314.942 116.499L316.721 119.58L314.93 120.6C314.79 120.683 314.789 120.945 314.929 121.19C315 121.312 315.093 121.407 315.184 121.46C315.277 121.514 315.371 121.526 315.443 121.487L317.232 120.465L319.011 123.546C319.081 123.668 319.174 123.763 319.266 123.817C319.359 123.871 319.453 123.883 319.523 123.843C319.666 123.762 319.667 123.499 319.525 123.253L317.748 120.173L319.537 119.151C319.679 119.072 319.68 118.808 319.538 118.562C319.468 118.44 319.375 118.346 319.283 118.292Z" fill="white"/>
<path d="M323.188 199.049L287.191 178.356L286.985 126.605L286.941 116.294L322.851 136.981L322.906 147.26L323.188 199.049Z" fill="white" stroke="#2C314B" stroke-width="0.556052" stroke-miterlimit="10" stroke-linecap="round" stroke-linejoin="round"/>
<path d="M322.906 147.26L286.985 126.605L286.941 116.294L322.851 136.981L322.906 147.26Z" fill="#F49B36" stroke="#1A004F" stroke-width="0.556052" stroke-miterlimit="10"/>
<path d="M304.024 147.873C299.315 145.155 295.488 147.339 295.469 152.748C295.457 158.161 299.259 164.751 303.968 167.469C308.677 170.188 312.507 168.005 312.523 162.594C312.538 157.184 308.732 150.592 304.024 147.873ZM308.859 164.838C309.159 165.358 309.158 165.915 308.855 166.088C308.706 166.173 308.508 166.147 308.31 166.033C308.113 165.919 307.915 165.717 307.767 165.46L303.992 158.922L300.196 161.089C300.043 161.172 299.845 161.146 299.648 161.032C299.453 160.92 299.256 160.718 299.104 160.459C298.807 159.941 298.809 159.383 299.108 159.209L302.907 157.044L299.132 150.505C298.835 149.991 298.837 149.43 299.135 149.255C299.287 149.169 299.485 149.197 299.682 149.311C299.879 149.425 300.077 149.625 300.227 149.885L303.998 156.422L307.798 154.257C307.949 154.17 308.146 154.198 308.342 154.311C308.539 154.425 308.736 154.625 308.886 154.885C309.186 155.405 309.184 155.967 308.882 156.135L305.086 158.302L308.859 164.838Z" fill="#2C314B"/>
<path d="M308.343 154.31C308.146 154.197 307.949 154.17 307.798 154.256L303.998 156.421L300.227 149.885C300.077 149.625 299.88 149.424 299.682 149.31C299.485 149.196 299.287 149.169 299.136 149.255C298.837 149.429 298.835 149.99 299.132 150.505L302.908 157.043L299.108 159.208C298.809 159.383 298.808 159.94 299.105 160.458C299.256 160.717 299.454 160.919 299.648 161.031C299.845 161.145 300.043 161.172 300.196 161.088L303.992 158.921L307.767 165.459C307.916 165.717 308.113 165.918 308.311 166.032C308.508 166.146 308.706 166.173 308.856 166.087C309.158 165.915 309.16 165.357 308.859 164.837L305.088 158.301L308.884 156.134C309.186 155.965 309.188 155.404 308.887 154.884C308.736 154.624 308.54 154.424 308.343 154.31Z" fill="white"/>
<path d="M322.868 131.775C320.649 130.493 318.845 131.523 318.836 134.072C318.83 136.623 320.623 139.729 322.842 141.01C325.061 142.291 326.866 141.262 326.874 138.712C326.88 136.162 325.087 133.056 322.868 131.775ZM325.147 139.769C325.288 140.015 325.287 140.278 325.145 140.359C325.074 140.399 324.981 140.387 324.888 140.333C324.795 140.279 324.702 140.184 324.632 140.062L322.853 136.981L321.064 138.003C320.992 138.042 320.899 138.03 320.805 137.976C320.714 137.923 320.621 137.828 320.55 137.706C320.41 137.462 320.411 137.199 320.551 137.116L322.342 136.096L320.563 133.015C320.423 132.772 320.424 132.507 320.565 132.425C320.636 132.384 320.729 132.397 320.822 132.451C320.915 132.505 321.008 132.6 321.079 132.722L322.856 135.803L324.647 134.782C324.718 134.742 324.811 134.754 324.904 134.808C324.996 134.861 325.089 134.956 325.159 135.078C325.301 135.323 325.3 135.588 325.158 135.667L323.369 136.689L325.147 139.769Z" fill="#2C314B"/>
<path d="M324.904 134.808C324.811 134.755 324.718 134.742 324.647 134.782L322.856 135.803L321.079 132.722C321.009 132.599 320.916 132.505 320.822 132.451C320.729 132.397 320.636 132.385 320.565 132.425C320.424 132.508 320.423 132.772 320.563 133.014L322.342 136.096L320.551 137.116C320.411 137.198 320.41 137.461 320.55 137.706C320.622 137.828 320.714 137.923 320.806 137.976C320.898 138.03 320.992 138.042 321.064 138.003L322.853 136.982L324.632 140.063C324.702 140.184 324.795 140.279 324.888 140.333C324.981 140.387 325.074 140.399 325.145 140.359C325.287 140.278 325.288 140.015 325.147 139.77L323.37 136.689L325.158 135.668C325.301 135.588 325.302 135.324 325.16 135.078C325.089 134.956 324.997 134.862 324.904 134.808Z" fill="white"/>
<path d="M328.805 215.565L292.808 194.873L292.602 143.121L292.559 132.811L328.468 153.498L328.523 163.777L328.805 215.565Z" fill="white" stroke="#2C314B" stroke-width="0.556052" stroke-miterlimit="10" stroke-linecap="round" stroke-linejoin="round"/>
<path d="M328.523 163.777L292.602 143.121L292.559 132.811L328.468 153.498L328.523 163.777Z" fill="#F49B36" stroke="#1A004F" stroke-width="0.556052" stroke-miterlimit="10"/>
<path d="M309.641 164.389C304.932 161.67 301.105 163.855 301.086 169.264C301.074 174.677 304.877 181.267 309.585 183.986C314.294 186.704 318.125 184.521 318.14 179.111C318.156 173.7 314.349 167.108 309.641 164.389ZM314.476 181.354C314.776 181.874 314.775 182.432 314.472 182.604C314.323 182.689 314.125 182.663 313.927 182.549C313.73 182.435 313.533 182.233 313.384 181.976L309.609 175.438L305.813 177.605C305.66 177.688 305.462 177.662 305.265 177.548C305.071 177.436 304.873 177.234 304.721 176.975C304.425 176.457 304.426 175.899 304.725 175.725L308.524 173.56L304.749 167.022C304.452 166.507 304.454 165.946 304.753 165.772C304.904 165.685 305.102 165.713 305.299 165.827C305.497 165.941 305.694 166.141 305.844 166.402L309.615 172.938L313.415 170.773C313.566 170.687 313.763 170.714 313.96 170.827C314.157 170.941 314.353 171.141 314.503 171.401C314.803 171.922 314.802 172.483 314.5 172.651L310.703 174.818L314.476 181.354Z" fill="#F49B36" stroke="#1A004F" stroke-width="0.556052" stroke-miterlimit="10"/>
<path d="M313.96 170.826C313.763 170.713 313.566 170.685 313.415 170.772L309.616 172.937L305.845 166.4C305.694 166.14 305.497 165.939 305.3 165.825C305.102 165.711 304.904 165.684 304.753 165.77C304.454 165.945 304.452 166.506 304.75 167.02L308.525 173.558L304.725 175.724C304.426 175.898 304.425 176.456 304.722 176.974C304.874 177.233 305.071 177.435 305.265 177.546C305.463 177.66 305.66 177.687 305.813 177.604L309.61 175.437L313.385 181.975C313.533 182.232 313.73 182.434 313.928 182.548C314.125 182.662 314.323 182.688 314.473 182.603C314.775 182.43 314.777 181.873 314.476 181.353L310.705 174.816L314.501 172.649C314.804 172.481 314.805 171.92 314.504 171.399C314.353 171.14 314.157 170.939 313.96 170.826Z" fill="white"/>
<path d="M328.485 148.291C326.266 147.01 324.462 148.04 324.453 150.589C324.448 153.139 326.24 156.245 328.458 157.527C330.678 158.808 332.483 157.779 332.49 155.229C332.498 152.679 330.704 149.572 328.485 148.291ZM330.764 156.286C330.906 156.531 330.904 156.794 330.762 156.875C330.691 156.915 330.599 156.903 330.505 156.849C330.412 156.795 330.319 156.701 330.249 156.579L328.471 153.498L326.682 154.519C326.61 154.558 326.517 154.546 326.423 154.493C326.332 154.44 326.239 154.345 326.167 154.223C326.027 153.978 326.028 153.715 326.169 153.633L327.96 152.613L326.181 149.531C326.041 149.289 326.042 149.024 326.182 148.942C326.254 148.901 326.347 148.914 326.44 148.968C326.533 149.022 326.626 149.116 326.697 149.239L328.474 152.319L330.264 151.299C330.336 151.258 330.428 151.271 330.521 151.324C330.614 151.378 330.707 151.472 330.778 151.595C330.919 151.84 330.918 152.105 330.776 152.184L328.987 153.205L330.764 156.286Z" fill="#2C314B"/>
<path d="M330.521 151.325C330.428 151.272 330.336 151.259 330.264 151.3L328.473 152.32L326.696 149.24C326.626 149.117 326.533 149.022 326.439 148.969C326.347 148.915 326.253 148.902 326.182 148.943C326.041 149.025 326.04 149.29 326.18 149.532L327.959 152.614L326.169 153.634C326.028 153.717 326.027 153.979 326.167 154.224C326.239 154.346 326.332 154.441 326.423 154.494C326.516 154.548 326.609 154.56 326.681 154.521L328.47 153.499L330.249 156.58C330.319 156.701 330.412 156.796 330.505 156.85C330.598 156.904 330.691 156.917 330.762 156.877C330.904 156.795 330.905 156.533 330.763 156.287L328.986 153.207L330.775 152.185C330.917 152.106 330.918 151.842 330.777 151.596C330.706 151.473 330.614 151.379 330.521 151.325Z" fill="white"/>
<path d="M56.3419 145.685L51.1617 168.691H51.1589C50.8375 170.411 49.5402 172.082 47.2565 173.4C41.9674 176.454 33.4164 176.452 28.1611 173.398C25.8941 172.081 24.6152 170.41 24.3121 168.691H24.2365L19.207 145.685H56.3419Z" fill="#D8DCF6" stroke="#1A004F" stroke-width="0.556052" stroke-miterlimit="10"/>
<path d="M24.3872 135.491C31.8099 131.206 43.8023 131.209 51.1717 135.491C58.541 139.774 58.5071 146.72 51.0844 151.006C43.6666 155.289 31.6748 155.285 24.3049 151.002C16.9355 146.72 16.9694 139.774 24.3872 135.491Z" fill="#D8DCF6" stroke="#1A004F" stroke-width="0.556052" stroke-miterlimit="10"/>
<path d="M25.6515 136.224C32.372 132.344 43.2289 132.347 49.901 136.224C56.573 140.102 56.5425 146.391 49.822 150.27C43.1066 154.148 32.2497 154.145 25.5776 150.268C18.905 146.39 18.9355 140.102 25.6515 136.224Z" fill="#2C314B"/>
<path d="M21.0582 71.8679C22.3999 71.0933 23.6483 71.4241 24.142 72.6758C24.8082 74.3751 23.9797 77.4039 22.9977 79.7343C21.8411 82.4651 17.798 87.7331 17.7925 87.7365L17.7919 87.737C17.7441 87.7648 16.9161 84.5826 16.885 84.3573C16.538 81.7839 17.2915 75.7597 19.7459 72.9766C20.1779 72.4868 20.6228 72.1186 21.0582 71.8679ZM67.2294 48.7039C67.359 48.6294 67.4874 48.5643 67.6142 48.5109C69.5648 47.6913 70.6491 49.3094 70.2187 51.6626C69.7767 54.0714 67.8616 56.78 66.1929 58.5793C64.6193 60.2797 61.2079 62.326 59.9384 63.0589C59.6326 63.2357 59.4508 63.3358 59.4497 63.3364V63.3358C59.4497 63.3297 59.4497 63.3236 59.4497 63.3169C59.4875 63.0166 60.4728 59.1265 60.559 58.869C61.551 55.8864 64.6059 50.218 67.2294 48.7039ZM55.6491 39.4167C56.1095 39.1509 56.5804 39.0019 57.0342 39.008C59.4602 39.0497 60.1119 44.2838 59.7205 47.277C59.6849 47.5334 58.7896 51.6826 58.739 51.7121L58.6901 51.7054C58.8019 52.5262 58.907 53.4131 59.0071 54.4006C59.1822 56.2234 59.3579 58.2963 59.413 60.6479C59.4352 61.5047 59.4502 62.395 59.4508 63.318C59.4491 63.3302 59.4491 63.3369 59.4508 63.3369C59.4508 64.9311 59.4063 66.6249 59.2773 68.4203C59.0732 71.2701 58.7363 74.3289 58.0601 77.6119L58.0362 77.7231C58.4577 76.7061 59.7171 73.8535 59.8317 73.6406C61.1645 71.0916 64.3068 66.8634 66.7662 65.4432C67.235 65.173 67.6781 65.004 68.0802 64.9684C69.8929 64.8066 70.4273 66.9863 69.5242 69.4101C68.6034 71.8795 66.3898 74.1188 64.592 75.4566C64.3752 75.6184 64.1322 75.7747 63.872 75.9254C61.6911 77.1843 58.2497 78.0256 57.9461 78.0951C57.2816 81.2318 56.3997 84.5008 55.3777 87.8293C54.795 89.7338 54.1694 91.6494 53.5199 93.5711C53.9058 92.6931 54.255 91.9063 54.3156 91.7945C55.6474 89.2478 58.7852 85.0246 61.2435 83.605C61.7145 83.3331 62.1599 83.1641 62.5636 83.1296C64.3763 82.9611 64.9107 85.148 64.0076 87.5647C63.0868 90.0407 60.8732 92.2805 59.0755 93.6178C58.8603 93.778 58.62 93.9331 58.3615 94.0821C56.4225 95.2015 53.4677 95.9961 52.6175 96.2101C52.3589 96.9519 52.112 97.6865 51.8596 98.4249C50.6262 101.966 49.3929 105.501 48.2502 108.977C47.8471 110.199 47.4868 111.396 47.1203 112.598C47.464 111.821 47.7592 111.162 47.8076 111.065C49.1405 108.516 52.2872 104.286 54.7477 102.865C55.2164 102.594 55.6602 102.426 56.0622 102.39C57.8749 102.228 58.4093 104.408 57.5063 106.832C56.5854 109.302 54.3657 111.545 52.5685 112.882C52.3517 113.044 52.1092 113.2 51.849 113.35C50.0168 114.408 47.2944 115.17 46.2863 115.429C45.9382 116.661 45.5834 117.891 45.2898 119.078C45.098 119.885 44.87 120.673 44.7143 121.48C44.5469 122.281 44.379 123.074 44.2116 123.854C43.9369 125.358 43.6439 126.907 43.4059 128.362C43.233 129.375 43.0839 130.332 42.9288 131.306C43.3197 130.084 44.1193 127.705 44.2038 127.503C45.3688 124.673 48.5333 119.596 51.0833 118.123C51.3419 117.974 51.5932 117.862 51.8362 117.793C53.7451 117.248 54.5998 119.124 53.9575 121.53C53.3036 123.992 51.2423 126.512 49.5063 128.128C48.843 128.746 47.8977 129.371 46.9246 129.933C45.0946 130.99 43.1657 131.823 42.8215 131.967C42.5713 133.568 42.3394 135.124 42.1431 136.582C41.9946 137.665 41.8579 138.698 41.7333 139.69L40.0318 140.673C40.1925 139.555 40.3648 138.389 40.5556 137.157C40.7997 135.532 41.0922 133.788 41.4019 131.992C41.0866 132.028 39.2739 132.231 37.6724 132.131C36.2784 134.671 32.7119 138.765 32.2465 139.292C32.7408 140.386 33.229 141.435 33.705 142.415C33.9614 142.93 34.2055 143.416 34.449 143.895L32.6507 144.933C32.5101 144.617 32.3638 144.318 32.2176 143.998C31.7171 142.886 31.2044 141.684 30.6912 140.426C30.2814 140.763 27.5345 142.993 25.4454 144.2C24.9133 144.507 24.4239 144.748 24.0264 144.874C22.2509 145.439 20.0979 145.525 19.2988 143.965C18.5181 142.444 19.2076 139.606 21.0643 137.816C21.3834 137.509 21.7238 137.256 22.0774 137.052C24.5858 135.603 27.7781 136.596 29.052 137.839C29.137 137.922 29.9289 139.026 30.4098 139.745C30.2024 139.231 29.9945 138.738 29.7926 138.199C29.3711 137.146 28.9919 136.061 28.5765 134.894C28.3992 134.313 28.2157 133.729 28.0316 133.131C27.8359 132.561 27.7069 131.876 27.5412 131.247C27.1853 129.752 26.8956 128.177 26.6365 126.563C25.7012 127.5 22.49 130.641 20.6066 131.729C20.5049 131.788 20.407 131.841 20.3136 131.886C18.5025 132.786 16.2238 133.335 15.1712 132.089C14.1364 130.867 14.4929 128.131 16.24 126.085C16.7198 125.523 17.2759 125.078 17.872 124.733C20.2808 123.343 23.3508 123.59 24.7381 124.37C24.8477 124.432 25.9542 125.368 26.5436 125.913C26.3951 124.939 26.2467 123.965 26.1227 122.957C25.7807 120.046 25.5177 117.034 25.2425 114.043C25.1552 113.125 25.0612 112.217 24.9739 111.305C24.6386 111.645 20.8446 115.464 18.7261 116.687C18.6265 116.744 18.5309 116.796 18.4392 116.841C16.622 117.751 14.3433 118.293 13.2907 117.047C12.2559 115.825 12.6184 113.086 14.3594 111.05C14.8409 110.485 15.3992 110.037 15.9981 109.692C18.4058 108.301 21.4713 108.549 22.8581 109.329C22.9916 109.405 24.5785 110.76 24.9555 111.142C24.7559 109.139 24.5379 107.153 24.2532 105.248C23.8579 102.619 23.3352 100.14 22.6557 97.8839C22.4994 98.0407 18.5481 102.044 16.3745 103.299C16.2739 103.357 16.1771 103.409 16.0848 103.454C14.2677 104.357 11.9951 104.903 10.9363 103.66C9.90153 102.438 10.2641 99.6994 12.0051 97.6559C12.4855 97.0931 13.0427 96.6472 13.6404 96.3024C16.0504 94.9107 19.122 95.1531 20.5093 95.9377C20.6428 96.0139 22.3515 97.4807 22.6312 97.786C22.5884 97.6503 22.5634 97.4974 22.5206 97.369C21.7616 94.9846 20.7251 92.9628 19.6463 91.1879C19.0186 90.1497 18.3552 89.2361 17.6857 88.3826C16.9117 89.2756 13.363 93.3103 11.4679 94.4953C11.3389 94.5759 11.2071 94.6549 11.0731 94.7322C9.3249 95.7419 7.2258 96.4259 6.08478 95.4984C4.88705 94.5103 5.00104 91.8868 6.63861 89.6871C7.23915 88.8803 8.00205 88.2486 8.83446 87.7682C11.1415 86.4359 13.9829 86.264 15.3881 86.7334C15.4915 86.7712 16.4513 87.3183 17.1436 87.727C16.8333 87.3489 16.5224 86.9497 16.2183 86.6027C15.0684 85.2876 13.919 84.2228 12.8792 83.2964C12.2892 82.7798 11.7359 82.3322 11.2133 81.9302C10.2563 82.4618 6.39895 84.5564 4.70689 84.6204C3.06319 84.6771 1.1754 84.1082 0.769481 82.1754C0.375796 80.2837 1.5018 77.4245 3.45132 76.0555C3.55252 75.9849 3.65428 75.9198 3.75659 75.8609C6.40118 74.334 9.43389 76.6349 10.397 78.5477C10.482 78.7145 11.4857 81.7734 11.4373 81.8012L11.3767 81.8362C11.8933 82.2071 12.4343 82.6197 13.0176 83.0912C14.0814 83.9753 15.273 84.9951 16.4596 86.2685C17.6518 87.5313 18.8996 88.9648 20.0384 90.7186C21.1777 92.4724 22.2687 94.4486 23.0944 96.8224L23.1189 96.9058C23.1039 95.9944 23.1333 93.406 23.1506 93.2008C23.4575 90.2426 25.4654 83.9264 28.1462 81.8073C28.338 81.6555 28.5271 81.527 28.7122 81.4197C30.3882 80.4522 31.7327 81.2829 31.88 83.1496C32.0435 85.2576 30.6573 88.2669 29.305 90.4489C27.7775 92.8989 23.537 96.8735 23.1984 97.1871C23.963 99.4708 24.5585 101.991 25.0211 104.658C25.2864 106.185 25.5032 107.76 25.7073 109.349C25.7173 108.549 25.7273 107.832 25.739 107.728C26.0459 104.769 28.0539 98.4533 30.7346 96.3341C30.9264 96.1823 31.1155 96.0539 31.3006 95.9466C32.9766 94.979 34.3206 95.8092 34.4624 97.6731C34.6258 99.7878 33.2396 102.798 31.8873 104.972C30.5166 107.178 26.924 110.632 25.9681 111.54C26.0426 112.152 26.1232 112.76 26.1916 113.376C26.5275 116.332 26.8511 119.289 27.2476 122.133C27.3899 123.131 27.5623 124.091 27.7291 125.061C27.7391 124.352 27.7497 123.746 27.7614 123.649C28.0683 120.691 30.0762 114.375 32.7508 112.266C32.9432 112.114 33.1334 111.985 33.3186 111.878C34.9989 110.908 36.3429 111.738 36.4847 113.602C36.6482 115.71 35.262 118.727 33.9096 120.902C32.6057 123 29.2972 126.22 28.1601 127.302C28.363 128.265 28.566 129.235 28.8051 130.135C28.9825 130.737 29.1059 131.356 29.3194 131.929C29.5152 132.513 29.7109 133.083 29.9005 133.657C30.3159 134.713 30.7374 135.808 31.165 136.816C31.458 137.518 31.7572 138.174 32.0502 138.834C31.8956 137.85 31.6415 135.886 31.6348 135.708C31.5931 133.872 32.1597 130.52 33.2985 127.737C33.2919 127.462 33.303 127.183 33.3386 126.891C33.5932 124.902 34.9094 122.712 36.4797 121.805C36.7399 121.655 37.0069 121.539 37.2776 121.467C39.9139 120.746 41.6004 125.097 41.7294 127.824C41.7422 127.977 41.6504 129.835 41.5809 131.011C41.7122 130.273 41.8317 129.563 41.9752 128.804C42.2438 127.304 42.549 125.804 42.8777 124.178C43.0511 123.395 43.2307 122.601 43.417 121.797C43.5844 121.004 43.8368 120.14 44.047 119.308C44.563 117.372 45.158 115.398 45.783 113.406C44.7649 113.715 41.1528 114.741 39.6959 114.3C38.2513 113.858 36.7194 112.659 36.7249 110.44C36.7305 108.397 38.0717 105.842 39.8549 104.813C39.9667 104.748 40.0807 104.689 40.1958 104.638C42.9093 103.405 45.2731 107.01 45.7775 109.465C45.808 109.621 45.9715 111.541 46.0471 112.605C46.4319 111.408 46.8106 110.213 47.2254 108.998C48.4287 105.495 49.7227 101.952 51.0044 98.411C51.3953 97.3278 51.7806 96.2485 52.1659 95.1687C51.8023 95.281 47.4818 96.6255 45.8548 96.129C44.4101 95.6875 42.8721 94.4919 42.8838 92.2689C42.8893 90.2265 44.2305 87.6714 46.0138 86.6422C46.1256 86.5777 46.2395 86.5187 46.3546 86.467C49.0682 85.2348 51.432 88.8391 51.9363 91.2941C51.973 91.482 52.2054 94.2467 52.2377 94.9668C53.0862 92.588 53.9164 90.2131 54.6676 87.8699C55.7074 84.642 56.6027 81.4842 57.3033 78.4448C57.1337 78.4943 52.6252 79.9189 50.9621 79.409C49.5114 78.9781 47.9794 77.772 47.9855 75.5595C47.9911 73.5104 49.3323 70.9554 51.1156 69.9256C51.2273 69.8611 51.3413 69.8021 51.4564 69.7504C54.17 68.5254 56.5337 72.1298 57.0381 74.5842C57.0748 74.7788 57.3261 77.7492 57.34 78.3125C57.3817 78.1279 57.4362 77.9433 57.4779 77.7592C58.1963 74.5219 58.5822 71.4558 58.8347 68.6266C58.9815 66.9807 59.0438 65.4466 59.0821 63.9675C58.2219 64.3389 54.3023 66.0021 52.6764 65.8119C51.1172 65.6251 49.3924 64.746 49.1861 62.6558C48.9864 60.6178 50.3126 57.7959 52.2744 56.6565C54.999 55.0762 57.8282 58.0845 58.5861 60.3159C58.6289 60.4377 58.9059 61.8039 59.0905 62.8126C59.1005 62.1448 59.1172 61.4525 59.1149 60.8258C59.1021 58.4565 58.9687 56.359 58.8302 54.5157C58.7485 53.4759 58.6551 52.5401 58.5555 51.6776C57.7665 51.5058 54.6048 50.774 53.6306 49.5035C52.6747 48.264 51.8985 46.1338 52.5952 43.6755C53.1068 41.8839 54.3362 40.1746 55.6491 39.4167Z" fill="#2C314B"/>
<path d="M282.513 199.975L216.71 161.986L216.543 139.938L282.418 177.867L282.513 199.975Z" fill="#2C314B" stroke="#2C314B" stroke-width="0.556052" stroke-miterlimit="10" stroke-linecap="round" stroke-linejoin="round"/>
<path d="M195.363 88.8848L261.235 126.818L261.481 182.89L195.793 145.097L195.363 88.8848Z" fill="white" stroke="#2C314B" stroke-width="0.556052" stroke-miterlimit="10" stroke-linecap="round" stroke-linejoin="round"/>
<path d="M195.488 88.3721V100.273L261.36 138.172V126.304L195.488 88.3721Z" fill="#F49B36" stroke="#1A004F" stroke-width="0.556052" stroke-miterlimit="10"/>
<path d="M213.527 139.653L235.327 152.207L235.408 161.194L213.67 148.686L213.527 139.653Z" fill="#F49B36" stroke="#1A004F" stroke-width="0.556052" stroke-miterlimit="10"/>
<path d="M208.109 122.845L244.832 143.985" stroke="#2C314B" stroke-width="0.556052" stroke-miterlimit="10" stroke-linecap="round" stroke-linejoin="round"/>
<path d="M210.293 129.896L242.649 148.523" stroke="#2C314B" stroke-width="0.556052" stroke-miterlimit="10" stroke-linecap="round" stroke-linejoin="round"/>
<path d="M249.603 122.359C248.31 121.613 247.258 122.212 247.254 123.699C247.249 125.184 248.295 126.994 249.587 127.74C250.881 128.488 251.933 127.888 251.937 126.403C251.942 124.916 250.897 123.106 249.603 122.359Z" fill="white" stroke="#2C314B" stroke-width="0.556052" stroke-miterlimit="10" stroke-linecap="round" stroke-linejoin="round"/>
<path d="M243.665 119.347C242.372 118.601 241.321 119.2 241.316 120.687C241.312 122.173 242.357 123.983 243.65 124.729C244.944 125.476 245.996 124.877 246 123.391C246.004 121.904 244.959 120.094 243.665 119.347Z" fill="white" stroke="#2C314B" stroke-width="0.556052" stroke-miterlimit="10" stroke-linecap="round" stroke-linejoin="round"/>
<path d="M255.728 126.1C254.435 125.354 253.383 125.953 253.379 127.44C253.374 128.925 254.42 130.735 255.712 131.482C257.006 132.229 258.058 131.63 258.062 130.144C258.066 128.657 257.022 126.847 255.728 126.1Z" fill="white" stroke="#2C314B" stroke-width="0.556052" stroke-miterlimit="10" stroke-linecap="round" stroke-linejoin="round"/>
<path d="M118.388 118.862L119.262 118.825C119.262 118.825 119.998 117.668 120.313 117.248C120.629 116.827 121.522 116.985 122.1 116.249C122.679 115.513 123.204 115.303 122.994 116.196C122.784 117.09 122.363 117.51 122.1 117.668C121.837 117.826 121.732 118.141 121.732 118.141L123.099 118.719L121.519 123.007C121.519 123.007 120.523 123.24 119.42 123.293C118.316 123.345 117.738 123.135 117.58 123.083C117.422 123.03 116.988 120.319 118.388 118.862Z" fill="white" stroke="#091330" stroke-width="0.556052" stroke-miterlimit="10" stroke-linecap="round" stroke-linejoin="round"/>
<path d="M105.469 99.8848C105.469 99.8848 106.278 101.525 106.828 103.451C107.379 105.377 109.376 116.651 109.376 116.651L118.386 118.862C118.386 118.862 117.56 120.329 117.56 121.522C117.56 122.715 117.469 123.907 117.469 123.907C117.469 123.907 112.699 123.632 110.039 122.989C107.379 122.347 104.546 122.251 104.036 121.29C103.526 120.329 103.159 111.248 103.434 106.111C103.709 100.975 105.469 99.8848 105.469 99.8848Z" fill="#596BFB" stroke="#1A004F" stroke-width="0.556052" stroke-miterlimit="10"/>
<path d="M97.8683 87.9809C97.8683 87.9809 99.2817 87.8869 100.601 85.7194C101.92 83.552 99.5642 79.877 96.1717 77.6156C92.7793 75.3541 87.7854 75.0711 85.9009 77.1446C84.0164 79.2175 79.9645 83.364 80.0585 85.437C80.1524 87.5099 80.4355 88.1694 80.247 88.6409C80.0585 89.1119 75.5355 90.3369 75.441 93.2584C75.347 96.1793 77.6085 96.8394 76.9485 97.8758C76.289 98.9123 71.954 100.043 73.3675 102.776C74.781 105.508 77.4194 106.922 83.1673 108.335C88.9153 109.749 96.1256 105.187 99.8233 103.369C103.521 101.551 103.239 97.4049 101.825 96.3684C100.412 95.3319 102.014 96.0859 101.354 93.3529C100.695 90.6194 97.8683 87.9809 97.8683 87.9809Z" fill="#2C314B"/>
<path d="M81.1758 180.142L83.023 190.726C83.023 190.726 82.5965 195.628 83.1648 197.475C83.7331 199.322 85.4379 201.169 86.0774 200.459C86.7168 199.749 88.2794 198.896 87.4981 195.415C86.7168 191.934 85.935 189.448 86.0062 189.235C86.0774 189.022 87.6399 179.36 87.6399 179.36C87.6399 179.36 83.0942 181.136 81.1758 180.142Z" fill="white" stroke="#091330" stroke-width="0.556052" stroke-miterlimit="10" stroke-linecap="round" stroke-linejoin="round"/>
<path d="M87.0018 193.314V196.196C87.0018 196.196 86.1493 196.054 85.3681 196.125C84.5868 196.196 83.7344 196.764 83.7344 196.764L82.9531 193.07C82.9531 193.07 82.927 193.123 82.8881 193.202C82.8441 194.702 82.8686 196.507 83.1667 197.475C83.7349 199.322 85.4398 201.169 86.0793 200.459C86.7187 199.749 88.2812 198.896 87.5 195.415C87.3304 194.662 87.1619 193.961 87.0018 193.314Z" fill="#596BFB" stroke="#1A004F" stroke-width="0.556052" stroke-miterlimit="10"/>
<path d="M97.0195 177.442C97.0195 177.442 97.446 181.42 97.5166 182.415C97.5878 183.41 96.6642 186.18 97.3037 186.891C97.9431 187.601 100.358 187.601 100.642 187.814C100.926 188.027 102.702 189.661 104.194 189.803C105.686 189.945 106.326 190.087 106.112 188.88C105.899 187.672 103.271 185.328 102.347 184.405C101.423 183.481 100.642 182.487 100.642 182.487C100.642 182.487 102.418 175.667 102.489 175.454C102.561 175.24 99.648 177.869 97.0195 177.442Z" fill="white" stroke="#091330" stroke-width="0.556052" stroke-miterlimit="10" stroke-linecap="round" stroke-linejoin="round"/>
<path d="M100.64 187.814C100.924 188.027 102.7 189.662 104.192 189.803C105.684 189.945 106.323 190.088 106.11 188.88C105.986 188.18 105.051 187.099 104.108 186.134L102.629 187.317C102.629 187.317 101.35 187.317 99.7873 185.897C98.9749 185.158 98.0686 184.306 97.3835 183.656C97.1766 184.862 96.8497 186.389 97.3012 186.891C97.9401 187.601 100.356 187.601 100.64 187.814Z" fill="#596BFB" stroke="#1A004F" stroke-width="0.556052" stroke-miterlimit="10"/>
<path d="M81.5007 126.449C81.5007 126.449 78.6042 133.057 78.5136 140.569C78.4229 148.081 81.6814 165.754 81.6814 165.754C81.6814 165.754 80.4142 172.271 80.3235 175.168C80.2329 178.064 80.7762 181.775 80.7762 181.775C80.7762 181.775 82.3147 182.952 84.2153 182.952C86.1159 182.952 88.741 181.232 88.741 181.232C88.741 181.232 88.8317 175.258 89.7364 171.004C90.6416 166.75 91.9089 154.78 92.7235 150.978C93.5381 147.176 93.9001 144.099 93.9001 144.099C93.9001 144.099 95.1673 164.035 95.1673 164.487C95.1673 164.94 94.7147 168.832 94.8053 171.999C94.896 175.167 94.9866 177.249 94.9866 177.249C94.9866 177.249 97.6117 178.788 99.6024 178.426C101.594 178.064 103.947 175.439 103.947 175.439C103.947 175.439 103.675 162.495 103.766 161.319C103.856 160.142 106.209 143.918 106.209 136.043C106.209 128.169 104.037 121.29 104.037 121.29C104.037 121.29 102.589 114.954 102.227 112.148C101.865 109.342 101.684 101.287 101.684 101.287C101.684 101.287 94.9861 99.3864 91.637 100.291C88.2879 101.196 82.4955 104.817 82.4955 104.817C82.4955 104.817 83.6721 114.502 82.9481 118.937C82.2241 123.372 81.5007 126.449 81.5007 126.449Z" fill="#2C314B" stroke="#2C314B" stroke-width="0.556052" stroke-miterlimit="10" stroke-linecap="round" stroke-linejoin="round"/>
<path d="M104.037 121.291C104.037 121.291 102.589 114.955 102.227 112.149C101.865 109.343 101.684 101.288 101.684 101.288C101.684 101.288 94.9858 99.3873 91.6367 100.292C88.2876 101.197 82.4952 104.818 82.4952 104.818C82.4952 104.818 83.6719 114.502 82.9479 118.938C82.2239 123.373 81.4999 126.45 81.4999 126.45C81.4999 126.45 80.1704 129.485 79.2852 133.779C82.5164 136.112 90.7932 141.2 98.5162 138.578C102.266 137.306 104.653 135.759 106.175 134.33C105.901 127.198 104.037 121.291 104.037 121.291Z" fill="#F49B36" stroke="#1A004F" stroke-width="0.556052" stroke-miterlimit="10"/>
<path d="M88.6487 104.727C88.6487 104.727 89.8253 106.9 92.4505 107.624C95.075 108.347 96.2872 104.454 96.7043 103.641C97.1213 102.828 96.2205 97.7236 96.2205 97.7236C96.2205 97.7236 94.8938 98.482 93.1739 98.3008C91.454 98.1195 88.8689 96.418 88.8689 96.418C88.8689 96.418 88.1961 101.469 88.6487 104.727Z" fill="white" stroke="#091330" stroke-width="0.556052" stroke-miterlimit="10" stroke-linecap="round" stroke-linejoin="round"/>
<path d="M88.8687 96.418C88.8687 96.418 88.0613 101.907 89.353 105.62C90.6447 109.333 90.9672 118.132 90.3216 121.764C89.676 125.397 88.465 130.16 88.465 130.16C88.465 130.16 86.2852 129.837 83.0568 128.142C79.8278 126.446 79.1822 125.236 79.1822 125.236L76.9219 106.347C76.9219 106.347 86.5277 99.4045 87.0932 98.7589C87.6576 98.1128 88.8687 96.418 88.8687 96.418Z" fill="#596BFB" stroke="#1A004F" stroke-width="0.556052" stroke-miterlimit="10"/>
<path d="M88.5479 95.6107C88.5479 95.6107 86.4494 96.983 86.0457 98.0323C85.642 99.0815 85.2383 104.49 85.2383 105.62C85.2383 106.75 85.4807 107.719 85.4807 107.719C85.4807 107.719 87.0143 106.669 87.5793 106.104C88.1442 105.54 89.3553 105.62 89.3553 105.62C89.3553 105.62 88.5479 102.23 88.7097 101.181C88.871 100.131 88.871 96.4181 88.871 96.4181C88.871 96.4181 89.1129 94.9651 88.5479 95.6107Z" fill="white" stroke="#091330" stroke-width="0.556052" stroke-miterlimit="10" stroke-linecap="round" stroke-linejoin="round"/>
<path d="M95.3203 98.9245C95.3203 98.9245 96.1611 101.747 96.7015 104.81C97.242 107.872 98.4431 112.617 99.2838 115.079C100.125 117.541 102.527 124.687 102.527 124.687C102.527 124.687 104.268 124.087 105.349 123.126C106.43 122.165 108.052 120.244 108.052 120.244L105.529 112.016C105.529 112.016 104.689 110.995 105.409 108.653C106.13 106.311 105.77 100.666 105.469 99.8853C105.169 99.1047 103.007 99.1046 101.806 98.9845C100.605 98.8644 96.6415 97.8435 96.2211 97.7234C95.8007 97.6033 95.3804 97.8435 95.3203 98.9245Z" fill="#596BFB" stroke="#1A004F" stroke-width="0.556052" stroke-miterlimit="10"/>
<path d="M96.7027 104.809C96.7027 104.809 96.7027 102.947 97.1231 102.827C97.5435 102.707 99.8255 103.367 99.8255 103.367C99.8255 103.367 99.285 101.085 98.144 99.0436C97.003 97.0018 95.7418 95.3203 94.9611 95.3203C94.1804 95.3203 96.1022 103.067 96.7027 104.809Z" fill="white" stroke="#091330" stroke-width="0.556052" stroke-miterlimit="10" stroke-linecap="round" stroke-linejoin="round"/>
<path d="M94.1776 82.8066C94.1776 82.8066 92.3253 85.5407 90.4737 87.0399C88.6215 88.539 85.7995 90.3912 85.7995 90.3912C85.7995 90.3912 84.1236 88.0102 83.771 90.7437C83.4185 93.4778 85.0939 94.0072 85.5348 94.095C85.9758 94.1835 86.6814 93.9188 86.6814 93.9188C86.6814 93.9188 88.5336 96.3882 89.1508 97.1817C89.7681 97.9752 93.0315 100.798 94.7953 99.7395C96.5591 98.6814 97.882 95.33 98.4113 93.2131C98.9407 91.0963 98.7644 89.3325 98.4997 88.1859C98.2351 87.0404 94.1776 82.8066 94.1776 82.8066Z" fill="white" stroke="#091330" stroke-width="0.556052" stroke-miterlimit="10" stroke-linecap="round" stroke-linejoin="round"/>
<path d="M89.8398 91.0092C89.8398 91.0092 91.3734 89.7175 93.3107 90.3636" stroke="#091330" stroke-width="0.556052" stroke-miterlimit="10" stroke-linecap="round" stroke-linejoin="round"/>
<path d="M95.7305 89.8789C95.7305 89.8789 96.376 88.5872 97.9908 88.9103" stroke="#091330" stroke-width="0.556052" stroke-miterlimit="10" stroke-linecap="round" stroke-linejoin="round"/>
<path d="M92.3835 92.2199C92.3835 92.6208 92.185 92.9467 91.9398 92.9467C91.6946 92.9467 91.4961 92.6214 91.4961 92.2199C91.4961 91.8185 91.6946 91.4932 91.9398 91.4932C92.1845 91.4932 92.3835 91.8185 92.3835 92.2199Z" fill="#2C314B"/>
<path d="M97.1458 91.4934C97.1458 91.8948 96.9468 92.2201 96.7021 92.2201C96.4569 92.2201 96.2578 91.8948 96.2578 91.4934C96.2578 91.0919 96.4563 90.7666 96.7021 90.7666C96.9468 90.7672 97.1458 91.0925 97.1458 91.4934Z" fill="#2C314B"/>
<path d="M95.7308 93.834C95.7308 93.834 96.0539 94.8832 95.8921 95.2063C95.7308 95.5294 94.6004 95.9325 93.793 95.4482" stroke="#091330" stroke-width="0.556052" stroke-miterlimit="10" stroke-linecap="round" stroke-linejoin="round"/>
<path d="M94.6037 96.9819C94.6037 96.9819 92.8277 98.1118 91.6172 96.417" stroke="#091330" stroke-width="0.556052" stroke-miterlimit="10" stroke-linecap="round" stroke-linejoin="round"/>
<path d="M79.5064 104.731C79.5064 104.731 75.3087 106.83 74.9857 107.637C74.6626 108.445 71.4336 128.302 71.4336 129.755C71.4336 131.208 83.0579 140.492 83.6228 140.734C84.1878 140.976 84.1878 140.976 84.1878 140.976C84.1878 140.976 84.4302 140.249 85.3988 139.039C86.3675 137.828 87.9011 136.94 87.9011 136.94C87.9011 136.94 81.8468 132.177 81.4431 131.45C81.0394 130.724 78.4565 128.06 78.4565 128.06L80.8781 115.306" fill="#596BFB"/>
<path d="M79.5064 104.731C79.5064 104.731 75.3087 106.83 74.9857 107.637C74.6626 108.445 71.4336 128.302 71.4336 129.755C71.4336 131.208 83.0579 140.492 83.6228 140.734C84.1878 140.976 84.1878 140.976 84.1878 140.976C84.1878 140.976 84.4302 140.249 85.3988 139.039C86.3675 137.828 87.9011 136.94 87.9011 136.94C87.9011 136.94 81.8468 132.177 81.4431 131.45C81.0394 130.724 78.4565 128.06 78.4565 128.06L80.8781 115.306" stroke="#1A004F" stroke-width="0.556052" stroke-miterlimit="10"/>
<path d="M84.6094 140.261C84.6094 140.261 84.8312 141.591 84.9641 141.901C85.097 142.211 86.1613 142.389 86.5155 143.142C86.8703 143.896 86.471 144.738 86.8703 144.871C87.2695 145.004 87.8011 144.605 87.8456 143.94C87.8901 143.275 87.2695 142.167 87.2695 142.167C87.2695 142.167 88.5996 143.098 89.0428 142.92C89.4859 142.743 92.0577 140.57 92.4119 140.127C92.7667 139.684 92.19 138.886 91.525 138.531C90.86 138.177 87.8995 136.939 87.8995 136.939C87.8995 136.939 85.141 138.221 84.6094 140.261Z" fill="white" stroke="#091330" stroke-width="0.556052" stroke-miterlimit="10" stroke-linecap="round" stroke-linejoin="round"/>
<path d="M108.914 142.681L130.232 106.35L89.1502 115.661L101.834 123.437L84.3164 136.25L87.8273 141.051L104.933 128.538L108.914 142.681Z" fill="white" stroke="#2C314B" stroke-width="0.556052" stroke-miterlimit="10" stroke-linecap="round" stroke-linejoin="round"/>
<path d="M88.6453 139.064C88.6453 139.064 88.0693 142.035 88.1577 142.567C88.2466 143.099 88.6008 142.789 89.0446 142.921C89.4883 143.054 89.6651 142.389 89.6651 141.769C89.6651 141.148 89.7096 139.774 89.7096 139.02C89.7096 138.267 88.9556 138.311 88.6453 139.064Z" fill="white" stroke="#091330" stroke-width="0.556052" stroke-miterlimit="10" stroke-linecap="round" stroke-linejoin="round"/>
<path d="M92.5901 141.193C92.5901 141.193 93.5209 140.838 93.5209 140.04C93.5209 139.242 92.118 137.358 92.0212 138.145C91.925 138.932 92.5901 141.193 92.5901 141.193Z" fill="white" stroke="#091330" stroke-width="0.556052" stroke-miterlimit="10" stroke-linecap="round" stroke-linejoin="round"/>
<path d="M91.0859 138.396C91.0859 138.396 91.1621 141.153 91.3467 141.609C91.5313 142.065 91.7693 141.941 92.2058 141.749C92.5917 141.578 92.6523 141.152 92.5294 140.6C92.406 140.048 92.173 138.816 92.0234 138.145C91.8744 137.474 91.2127 137.663 91.0859 138.396Z" fill="white" stroke="#091330" stroke-width="0.556052" stroke-miterlimit="10" stroke-linecap="round" stroke-linejoin="round"/>
<path d="M89.7656 138.713C89.7656 138.713 89.8496 141.737 90.052 142.237C90.2544 142.737 90.5157 142.602 90.9945 142.391C91.4182 142.204 91.4844 141.736 91.3493 141.131C91.2141 140.525 90.9584 139.174 90.7943 138.438C90.6303 137.702 89.9046 137.91 89.7656 138.713Z" fill="white" stroke="#091330" stroke-width="0.556052" stroke-miterlimit="10" stroke-linecap="round" stroke-linejoin="round"/>
<path d="M120.538 121.392C120.538 121.392 121.268 122.86 121.518 123.009C121.766 123.158 121.871 122.83 122.192 122.618C122.513 122.405 122.379 122.048 122.153 121.813C121.926 121.578 121.451 121.031 121.176 120.745C120.9 120.459 120.453 120.922 120.538 121.392Z" fill="white" stroke="#091330" stroke-width="0.556052" stroke-miterlimit="10" stroke-linecap="round" stroke-linejoin="round"/>
<path d="M123.956 119.358C123.956 119.358 124.38 118.457 123.826 117.883C123.272 117.308 120.955 116.926 121.431 117.559C121.908 118.192 123.956 119.358 123.956 119.358Z" fill="white" stroke="#091330" stroke-width="0.556052" stroke-miterlimit="10" stroke-linecap="round" stroke-linejoin="round"/>
<path d="M120.926 118.391C120.926 118.391 122.895 120.323 123.344 120.523C123.793 120.723 123.879 120.469 124.06 120.027C124.219 119.637 123.967 119.288 123.495 118.976C123.023 118.664 122.001 117.939 121.427 117.559C120.854 117.18 120.509 117.776 120.926 118.391Z" fill="white" stroke="#091330" stroke-width="0.556052" stroke-miterlimit="10" stroke-linecap="round" stroke-linejoin="round"/>
<path d="M120.198 119.533C120.198 119.533 122.358 121.652 122.85 121.872C123.343 122.091 123.437 121.812 123.636 121.328C123.811 120.9 123.534 120.517 123.017 120.174C122.499 119.831 121.377 119.036 120.749 118.62C120.119 118.205 119.74 118.858 120.198 119.533Z" fill="white" stroke="#091330" stroke-width="0.556052" stroke-miterlimit="10" stroke-linecap="round" stroke-linejoin="round"/>
<path d="M188.963 139.71C189.905 139.311 190.566 138.379 190.566 137.292C190.566 136.107 189.781 135.105 188.703 134.779" stroke="#091330" stroke-width="0.556052" stroke-miterlimit="10" stroke-linecap="round" stroke-linejoin="round"/>
<path d="M187.264 130.331C187.264 130.331 189.034 134.46 188.837 135.443C188.641 136.426 188.444 136.917 188.543 137.605C188.641 138.293 189.231 139.08 189.231 140.751C189.231 142.422 189.427 145.568 188.641 146.354C187.854 147.14 184.512 147.632 184.512 147.632L183.922 152.055L174.387 149.106L175.861 144.584C175.861 144.584 175.075 142.716 174.878 137.802C174.681 132.887 178.614 129.839 181.072 129.053C183.529 128.266 187.264 130.331 187.264 130.331Z" fill="white" stroke="#091330" stroke-width="0.556052" stroke-miterlimit="10" stroke-linecap="round" stroke-linejoin="round"/>
<path d="M181.172 144.29C181.172 144.29 182.171 145.39 182.995 145.24C183.82 145.09 183.82 144.49 183.82 144.49" stroke="#091330" stroke-width="0.556052" stroke-miterlimit="10" stroke-linecap="round" stroke-linejoin="round"/>
<path d="M183.387 139.39L190.568 135.716" stroke="#091330" stroke-width="0.556052" stroke-miterlimit="10" stroke-linecap="round" stroke-linejoin="round"/>
<path d="M173.685 147.774L172.082 150.279L185.709 155.189L185.308 151.482C185.308 151.482 176.09 147.674 173.685 147.774Z" fill="#596BFB" stroke="#1A004F" stroke-width="0.556052" stroke-miterlimit="10"/>
<path d="M162.709 187.671C162.709 187.671 163.541 189.472 163.818 189.749C164.095 190.026 164.441 191.689 164.857 192.036C165.273 192.382 167.029 192.406 166.52 193.283C166.011 194.159 165.55 193.837 164.996 193.699C164.442 193.56 164.927 195.708 165.343 196.748C165.759 197.787 164.719 197.44 164.719 197.44C164.719 197.44 164.858 198.48 164.235 198.618C163.611 198.757 163.611 198.757 163.611 198.757C163.611 198.757 162.987 198.965 162.502 198.757C162.018 198.549 161.879 198.064 161.879 198.064C161.879 198.064 161.186 197.44 160.77 196.748C160.354 196.055 159.385 193.768 159.315 192.521C159.246 191.274 159.246 188.918 159.246 188.71C159.246 188.502 158.969 187.325 158.969 187.325L161.879 186.632L162.709 187.671Z" fill="white" stroke="#091330" stroke-width="0.556052" stroke-miterlimit="10" stroke-linecap="round" stroke-linejoin="round"/>
<path d="M161.878 198.065C161.878 198.065 162.577 198.064 162.242 197.283C161.907 196.503 161.963 196.781 161.74 195.945C161.517 195.108 161.461 194.662 161.461 194.662" stroke="#091330" stroke-width="0.556052" stroke-miterlimit="10" stroke-linecap="round" stroke-linejoin="round"/>
<path d="M163.611 198.757C163.611 198.757 163.749 198.566 163.47 197.952C163.191 197.338 162.857 196.669 162.745 196.056C162.633 195.442 162.41 194.55 162.41 194.55" stroke="#091330" stroke-width="0.556052" stroke-miterlimit="10" stroke-linecap="round" stroke-linejoin="round"/>
<path d="M164.721 197.441C164.721 197.441 164.308 197.115 163.973 196.111C163.639 195.107 163.527 194.215 163.527 194.215" stroke="#091330" stroke-width="0.556052" stroke-miterlimit="10" stroke-linecap="round" stroke-linejoin="round"/>
<path d="M162.021 191.259C162.021 191.259 162.3 192.207 162.021 192.932C161.742 193.657 161.742 193.657 161.742 193.657" stroke="#091330" stroke-width="0.556052" stroke-miterlimit="10" stroke-linecap="round" stroke-linejoin="round"/>
<path d="M164.996 193.699L163.86 193.044C163.86 193.044 163.302 193.211 162.855 192.765" stroke="#091330" stroke-width="0.556052" stroke-miterlimit="10" stroke-linecap="round" stroke-linejoin="round"/>
<path d="M161.271 243.042C161.271 243.042 160.345 247.132 160.576 247.981C160.807 248.829 162.351 249.756 163.354 249.678C164.357 249.601 165.592 248.444 166.055 247.981C166.518 247.518 168.447 247.749 168.987 246.592C169.527 245.435 169.682 243.428 168.987 243.042C168.293 242.656 167.212 242.425 166.286 242.58C165.36 242.734 161.271 243.042 161.271 243.042Z" fill="#596BFB" stroke="#1A004F" stroke-width="0.556052" stroke-miterlimit="10"/>
<path d="M169.449 244.403C169.272 245.136 168.793 246.591 167.097 246.584C165.208 246.577 165.428 247.652 163.426 248.119C162.223 248.4 161.191 247.742 160.557 247.171C160.53 247.527 160.531 247.815 160.576 247.98C160.807 248.828 162.351 249.755 163.354 249.677C164.357 249.6 165.591 248.443 166.055 247.98C166.518 247.517 168.447 247.749 168.987 246.591C169.272 245.978 169.449 245.126 169.449 244.403Z" fill="#2C314B" stroke="#2C314B" stroke-width="0.556052" stroke-miterlimit="10" stroke-linecap="round" stroke-linejoin="round"/>
<path d="M185.317 250.607C185.317 250.607 186.137 252.11 186.904 252.71C188.679 254.099 193.926 254.794 194.159 256.609C194.276 257.521 193.815 258.614 189.026 259.412C184.237 260.21 181.442 259.963 179.96 259.963C178.477 259.963 177.739 258.776 177.739 257.749C177.739 256.723 177.625 250.908 177.625 250.908C177.625 250.908 180.808 253.727 185.317 250.607Z" fill="#596BFB" stroke="#1A004F" stroke-width="0.556052" stroke-miterlimit="10"/>
<path d="M194.159 256.609C194.133 256.409 194.043 256.224 193.907 256.048C193.591 256.47 193.159 256.924 192.564 257.343C190.762 258.611 186.423 259.012 182.351 258.678C180.05 258.489 178.582 258.003 177.738 257.615C177.738 257.665 177.739 257.712 177.739 257.75C177.739 258.776 178.477 259.964 179.96 259.964C181.442 259.964 184.237 260.21 189.026 259.413C193.815 258.614 194.276 257.521 194.159 256.609Z" fill="#2C314B" stroke="#2C314B" stroke-width="0.556052" stroke-miterlimit="10" stroke-linecap="round" stroke-linejoin="round"/>
<path d="M166.351 186.664C166.351 186.664 165.783 190.753 166.01 194.16C166.237 197.568 166.237 199.725 166.237 199.725C166.237 199.725 166.01 209.606 165.555 213.127C165.101 216.648 163.284 223.803 162.716 228.233C162.148 232.662 161.059 243.749 161.059 243.749C161.059 243.749 162.081 244.999 163.784 244.999C165.488 244.999 166.851 243.863 166.851 243.863C166.851 243.863 170.667 225.394 171.348 223.463C172.029 221.532 173.733 216.421 173.96 214.491C174.188 212.56 175.777 205.745 175.777 205.745C175.777 205.745 177.14 220.283 177.14 221.532C177.14 222.781 175.55 232.889 176.004 236.07C176.458 239.25 177.594 251.743 177.594 251.743C177.594 251.743 178.616 252.652 179.865 252.993C181.115 253.334 182.591 253.22 183.5 252.538C184.408 251.857 185.317 250.608 185.317 250.608C185.317 250.608 184.863 234.821 185.203 233.004C185.544 231.187 187.475 223.464 188.384 216.876C189.292 210.288 188.156 191.208 188.156 191.208C188.156 191.208 178.39 197.113 166.351 186.664Z" fill="#2C314B" stroke="#2C314B" stroke-width="0.556052" stroke-miterlimit="10" stroke-linecap="round" stroke-linejoin="round"/>
<path d="M188.156 191.207C188.156 191.207 178.389 197.113 166.349 186.664C166.349 186.664 165.822 190.478 165.99 193.809C167.834 196.085 171.463 199.357 177.707 200.634C182.56 201.627 186.15 201.039 188.565 200.172C188.394 195.204 188.156 191.207 188.156 191.207Z" fill="#F49B36" stroke="#1A004F" stroke-width="0.556052" stroke-miterlimit="10"/>
<path d="M211.896 156.794C211.896 156.794 212.389 154.463 212.548 153.663C212.708 152.863 213.108 152.143 212.868 150.864C212.628 149.584 211.828 148.224 212.548 148.065C213.268 147.905 213.748 148.545 213.988 149.104C214.227 149.664 214.548 150.944 214.548 150.944L216.067 148.625L218.547 145.665C218.547 145.665 219.346 145.505 219.427 145.985C219.507 146.465 218.147 149.024 218.147 149.024L217.427 150.704C217.427 150.704 219.667 147.985 219.906 147.825C220.146 147.665 221.266 146.545 221.746 146.625C222.226 146.705 222.545 146.865 222.306 147.345C222.066 147.824 220.626 149.744 220.626 149.744L219.026 151.904C219.026 151.904 220.626 151.424 221.186 151.184C221.746 150.944 223.185 150.544 223.505 150.704C223.825 150.864 223.745 151.344 223.425 151.584C223.105 151.824 221.985 152.464 221.745 152.544C221.506 152.624 219.746 153.423 219.746 153.423C219.746 153.423 221.426 153.583 221.985 153.664C222.544 153.744 223.505 153.583 223.425 154.063C223.344 154.543 222.545 154.703 222.305 154.703C222.065 154.703 221.265 154.703 220.865 154.783C220.465 154.864 219.345 155.103 219.345 155.103C219.345 155.103 219.105 156.303 217.586 157.422C216.066 158.542 214.147 159.582 214.147 159.582L211.188 157.822L211.896 156.794Z" fill="white" stroke="#091330" stroke-width="0.556052" stroke-miterlimit="10" stroke-linecap="round" stroke-linejoin="round"/>
<path d="M172.08 150.279C172.08 150.279 166.237 151.002 166.01 151.797C165.783 152.592 157.946 172.581 157.946 173.603C157.946 174.625 157.378 187.801 157.832 188.141C158.287 188.482 159.763 189.163 160.672 189.163C161.58 189.163 162.83 188.255 162.83 188.255L165.215 173.036L167.373 169.742L167.827 179.282L165.442 187.119C165.442 187.119 169.531 193.82 178.162 194.728C186.794 195.637 190.088 193.933 190.088 193.933C190.088 193.933 190.315 177.238 190.542 176.102C190.77 174.966 191.11 172.922 191.11 172.922C191.11 172.922 195.653 175.647 197.357 175.647C199.06 175.647 214.847 160.883 214.847 160.883C214.847 160.883 215.075 159.293 214.052 158.27C213.03 157.248 211.894 156.794 211.894 156.794L197.697 164.858C197.697 164.858 189.746 156.34 188.384 155.885C187.021 155.431 185.707 155.189 185.707 155.189C185.707 155.189 174.63 150.466 172.08 150.279Z" fill="#596BFB" stroke="#1A004F" stroke-width="0.556052" stroke-miterlimit="10"/>
<path d="M191.11 172.921L183.5 169.4" stroke="#091330" stroke-width="0.556052" stroke-miterlimit="10" stroke-linecap="round" stroke-linejoin="round"/>
<path d="M189.292 172.581C189.292 172.581 184.181 173.49 182.137 173.035" stroke="#091330" stroke-width="0.556052" stroke-miterlimit="10" stroke-linecap="round" stroke-linejoin="round"/>
<path d="M167.034 167.924C167.034 167.924 166.125 163.381 165.898 159.179" stroke="#091330" stroke-width="0.556052" stroke-miterlimit="10" stroke-linecap="round" stroke-linejoin="round"/>
<path d="M186.675 131.314C186.675 131.314 185.496 132.1 186.183 133.28C186.871 134.46 187.068 134.656 186.577 135.738C186.085 136.82 184.709 137.507 184.709 137.507C184.709 137.507 185.004 139.67 184.414 140.063C183.824 140.456 183.136 139.473 182.448 138.981C181.76 138.49 179.99 139.965 180.089 141.439C180.187 142.914 181.17 144.29 181.17 144.29C181.17 144.29 181.072 146.355 179.106 147.043C177.14 147.73 175.469 147.436 173.404 144.093C171.34 140.751 168.489 136.229 169.767 133.968C171.045 131.707 176.354 128.168 176.354 128.168C176.354 128.168 176.944 125.514 179.008 124.63C181.072 123.745 183.038 126.104 184.218 126.202C185.397 126.301 186.38 124.63 187.56 125.219C188.74 125.809 189.92 126.89 189.33 129.053C188.74 131.216 186.675 131.314 186.675 131.314Z" fill="#2C314B"/>
</svg>
