<svg width="16" height="16" viewBox="0 0 16 16" fill="none" xmlns="http://www.w3.org/2000/svg">
<g clip-path="url(#clip0_149_1320)">
<path d="M14 3.33333H12.6667V2C12.6667 0.897333 11.7693 0 10.6667 0H5.33333C4.23067 0 3.33333 0.897333 3.33333 2V6H2C0.897333 6 0 6.89733 0 8V16H16V5.33333C16 4.23067 15.1027 3.33333 14 3.33333ZM4 12.6667H2.66667V11.3333H4V12.6667ZM4 10H2.66667V8.66667H4V10ZM7.33333 12.6667H6V11.3333H7.33333V12.6667ZM7.33333 10H6V8.66667H7.33333V10ZM7.33333 7.33333H6V6H7.33333V7.33333ZM7.33333 4.66667H6V3.33333H7.33333V4.66667ZM10 12.6667H8.66667V11.3333H10V12.6667ZM10 10H8.66667V8.66667H10V10ZM10 7.33333H8.66667V6H10V7.33333ZM10 4.66667H8.66667V3.33333H10V4.66667ZM13.3333 12.6667H12V11.3333H13.3333V12.6667ZM13.3333 10H12V8.66667H13.3333V10ZM13.3333 7.33333H12V6H13.3333V7.33333Z" fill="white"/>
</g>
<defs>
<clipPath id="clip0_149_1320">
<rect width="16" height="16" fill="white"/>
</clipPath>
</defs>
</svg>
