<svg width="14" height="16" viewBox="0 0 14 16" fill="none" xmlns="http://www.w3.org/2000/svg">
<path d="M9.8326 0H3.77931C0.752659 0 0 0.808707 0 4.03553V13.0514C0 15.1813 1.16902 15.6857 2.58626 14.1644L2.59427 14.1564C3.25084 13.4598 4.25172 13.5158 4.82022 14.2765L5.62893 15.3574C6.27749 16.2142 7.32641 16.2142 7.97498 15.3574L8.78369 14.2765C9.36019 13.5078 10.3611 13.4518 11.0176 14.1564C12.4429 15.6777 13.6039 15.1733 13.6039 13.0434V4.03553C13.6119 0.808707 12.8593 0 9.8326 0ZM9.07995 6.3976L8.6796 6.80595H8.67159L6.24547 9.23208C6.14137 9.33617 5.92519 9.44827 5.77305 9.46428L4.69211 9.62442C4.29976 9.68047 4.02752 9.40023 4.08357 9.01589L4.23571 7.92694C4.25973 7.7748 4.36382 7.56662 4.46791 7.45452L6.90204 5.0284L7.30239 4.62004C7.56662 4.35581 7.86288 4.16364 8.18316 4.16364C8.4554 4.16364 8.75166 4.29176 9.07995 4.62004C9.80058 5.34067 9.56837 5.90917 9.07995 6.3976Z" fill="white"/>
</svg>
