<svg width="16" height="16" viewBox="0 0 16 16" fill="none" xmlns="http://www.w3.org/2000/svg">
<g clip-path="url(#clip0_149_677)">
<path d="M10.7172 1.00038C9.53906 1.16288 8.54531 1.69101 7.75469 2.58163C7.22656 3.16913 6.86094 3.90976 6.68281 4.75038C6.57969 5.22226 6.57969 6.09101 6.68281 6.56288C6.77656 7.00038 6.90156 7.37226 7.07969 7.72538C7.74219 9.04413 8.91406 9.94413 10.3734 10.2535C10.6234 10.3066 10.8234 10.3254 11.2172 10.3285L11.7328 10.3379L11.9984 10.6004C12.2859 10.8848 12.5797 11.0598 12.9828 11.191C13.1766 11.2535 13.2828 11.2629 13.9234 11.2754C14.6109 11.2879 14.6516 11.2848 14.7734 11.2223C14.8609 11.1785 14.9266 11.1129 14.9672 11.0316C15.0828 10.8035 15.0391 10.6348 14.7922 10.3691C14.6078 10.1691 14.4297 9.88788 14.3141 9.60976C14.2609 9.48476 14.2172 9.36601 14.2172 9.35351C14.2172 9.33788 14.3891 9.15038 14.6016 8.93476C15.3047 8.22538 15.7016 7.49101 15.9078 6.53163C16.0016 6.09413 16.0109 5.25351 15.9234 4.82851C15.5391 2.90351 14.0922 1.44413 12.1891 1.05976C11.8422 0.991008 11.0328 0.956634 10.7172 1.00038ZM11.5672 2.87851C11.8391 2.93476 12.0609 3.05976 12.2641 3.26288C12.8547 3.85663 12.8141 4.75351 12.1703 5.33163C11.8953 5.57851 11.7891 5.76288 11.7516 6.05663C11.7203 6.31601 11.6891 6.37851 11.5422 6.49101C11.2359 6.72226 10.8109 6.48163 10.8109 6.07851C10.8109 5.84726 10.9141 5.47226 11.0484 5.21601C11.1297 5.06288 11.2359 4.93163 11.4109 4.76601C11.5453 4.63788 11.6766 4.49413 11.7016 4.44726C11.8484 4.16601 11.6078 3.78163 11.2797 3.78163C11.1234 3.78163 10.9453 3.89101 10.8734 4.03163C10.8391 4.09726 10.8109 4.19726 10.8109 4.25038C10.8109 4.48788 10.5797 4.71913 10.3391 4.71913C10.1047 4.71913 9.87344 4.48163 9.87344 4.23788C9.87344 3.88788 10.0297 3.52538 10.2953 3.26601C10.6484 2.91601 11.0984 2.78163 11.5672 2.87851ZM11.4984 7.12538C11.6391 7.19726 11.7484 7.37538 11.7484 7.53163C11.7484 7.58476 11.7203 7.68476 11.6859 7.75038C11.6141 7.89101 11.4359 8.00038 11.2797 8.00038C11.1234 8.00038 10.9453 7.89101 10.8734 7.75038C10.7547 7.51913 10.8234 7.27226 11.0484 7.13788C11.1984 7.04726 11.3359 7.04413 11.4984 7.12538Z" fill="white"/>
<path d="M4.26311 4.73788C3.57249 4.83788 3.11936 4.96913 2.61936 5.21913C0.313114 6.37851 -0.633761 9.06913 0.453739 11.3754C0.681864 11.8566 0.966239 12.2535 1.39436 12.6848C1.60686 12.9004 1.77874 13.0879 1.77874 13.1035C1.77874 13.116 1.73499 13.2348 1.68186 13.3598C1.56624 13.6379 1.38811 13.9191 1.20374 14.1191C0.956864 14.3848 0.913114 14.5535 1.02874 14.7816C1.06936 14.8629 1.13499 14.9285 1.22249 14.9723C1.34436 15.0348 1.38499 15.0379 2.07249 15.0254C2.71311 15.0129 2.81936 15.0035 3.01311 14.941C3.41624 14.8098 3.70999 14.6348 3.99749 14.3504L4.26311 14.0879L4.77874 14.0785C5.53811 14.0691 6.06936 13.9473 6.73186 13.6254C7.78811 13.1129 8.60374 12.2379 9.04436 11.141C9.12561 10.9348 9.14436 10.8566 9.11624 10.8473C9.09436 10.841 8.91311 10.7504 8.71624 10.6504C8.23811 10.4066 7.84124 10.1191 7.41311 9.70663C7.13499 9.44101 7.05999 9.38163 7.05999 9.43476C7.05999 9.64726 6.81624 9.87538 6.58811 9.87538C6.35999 9.87538 6.12249 9.63788 6.12249 9.40663C6.12249 9.15351 6.38186 8.91288 6.62249 8.94726L6.74124 8.96288L6.55374 8.67538C6.08186 7.95976 5.77874 7.10038 5.68186 6.20351C5.65061 5.89726 5.65061 5.68476 5.69436 4.92226C5.70061 4.83163 5.69436 4.82851 5.49749 4.79101C5.29124 4.75038 4.43186 4.71288 4.26311 4.73788ZM3.05999 9.00038C3.20061 9.07226 3.30999 9.25038 3.30999 9.40663C3.30999 9.64413 3.07874 9.87538 2.83811 9.87538C2.69436 9.87538 2.50061 9.75351 2.43186 9.61913C2.31624 9.39413 2.38811 9.14726 2.60999 9.01288C2.75999 8.92226 2.89749 8.91913 3.05999 9.00038ZM4.93499 9.00038C5.07561 9.07226 5.18499 9.25038 5.18499 9.40663C5.18499 9.64413 4.95374 9.87538 4.71311 9.87538C4.56936 9.87538 4.37561 9.75351 4.30686 9.61913C4.19124 9.39413 4.26311 9.14726 4.48499 9.01288C4.63499 8.92226 4.77249 8.91913 4.93499 9.00038Z" fill="white"/>
</g>
<defs>
<clipPath id="clip0_149_677">
<rect width="16" height="16" fill="white"/>
</clipPath>
</defs>
</svg>
