<svg width="16" height="16" viewBox="0 0 16 16" fill="none" xmlns="http://www.w3.org/2000/svg">
<path d="M15.85 2.88503L8.1 0.0193626C8.05 -0.00645422 8 -0.00645422 7.925 0.0193626L0.175 2.88503C0.075 2.93667 0 3.01412 0 3.1432C0 3.24647 0.075 3.34974 0.15 3.37556L3.325 4.53731V4.79548C3.325 6.55103 4.25 8.20331 5.725 9.05526C6.4 9.44252 7.175 9.64905 7.95 9.64905H8.05C8.825 9.64905 9.575 9.44252 10.275 9.05526C11.75 8.17749 12.675 6.55103 12.675 4.79548V4.53731L13.85 4.09843V6.31868H13.775C13.5 6.31868 13.3 6.55103 13.3 6.8092V8.28076C13.3 8.40984 13.4 8.53893 13.55 8.53893H14.65C14.775 8.53893 14.9 8.43566 14.9 8.28076V6.8092C14.9 6.52521 14.675 6.31868 14.425 6.31868H14.35V3.91771L15.85 3.37556C15.95 3.34974 16 3.24647 16 3.1432C16 3.01412 15.925 2.93667 15.85 2.88503Z" fill="white"/>
<path d="M11.475 8.69385C11.15 9.00365 10.8 9.28764 10.4 9.51999C9.625 9.95887 8.8 10.1912 7.95 10.1912H7.85C7 10.1912 6.15 9.95887 5.4 9.51999C5 9.28764 4.65 9.00365 4.325 8.69385C2.425 9.0811 1 10.8108 1 12.8762V15.7419C1 15.8709 1.1 16 1.25 16H14.55C14.675 16 14.8 15.8968 14.8 15.7419V12.8504C14.8 10.785 13.35 9.0811 11.475 8.69385Z" fill="white"/>
</svg>
