<svg width="56" height="56" viewBox="0 0 56 56" fill="none" xmlns="http://www.w3.org/2000/svg">
<rect width="56" height="56" rx="28" fill="#16CDC7" fill-opacity="0.2"/>
<g clip-path="url(#clip0_40_5234)">
<path d="M28 32C27.2089 32 26.4355 31.7654 25.7777 31.3259C25.1199 30.8864 24.6072 30.2616 24.3045 29.5307C24.0017 28.7998 23.9225 27.9956 24.0769 27.2196C24.2312 26.4437 24.6122 25.731 25.1716 25.1716C25.731 24.6122 26.4437 24.2312 27.2196 24.0769C27.9956 23.9225 28.7998 24.0017 29.5307 24.3045C30.2616 24.6072 30.8864 25.1199 31.3259 25.7777C31.7654 26.4355 32 27.2089 32 28C32 29.0609 31.5786 30.0783 30.8284 30.8284C30.0783 31.5786 29.0609 32 28 32ZM21.683 32H17C16.7348 32 16.4804 31.8946 16.2929 31.7071C16.1054 31.5196 16 31.2652 16 31C16.0095 29.5641 16.5317 28.1789 17.4726 27.0941C18.4134 26.0093 19.7109 25.2964 21.131 25.084C21.296 25.0609 21.4642 25.0794 21.6203 25.1378C21.7763 25.1962 21.9153 25.2927 22.0246 25.4184C22.1339 25.5442 22.21 25.6953 22.2461 25.858C22.2821 26.0207 22.2769 26.1898 22.231 26.35C22.0778 26.8866 22 27.4419 22 28C22.0003 28.8898 22.2006 29.7681 22.586 30.57C22.6585 30.7222 22.6913 30.8903 22.6815 31.0586C22.6716 31.2269 22.6193 31.39 22.5295 31.5327C22.4397 31.6754 22.3153 31.793 22.1678 31.8747C22.0203 31.9564 21.8546 31.9995 21.686 32H21.683ZM33 40H23C22.7348 40 22.4804 39.8946 22.2929 39.7071C22.1054 39.5196 22 39.2652 22 39C22 37.4087 22.6321 35.8826 23.7574 34.7574C24.8826 33.6321 26.4087 33 28 33C29.5913 33 31.1174 33.6321 32.2426 34.7574C33.3679 35.8826 34 37.4087 34 39C34 39.2652 33.8946 39.5196 33.7071 39.7071C33.5196 39.8946 33.2652 40 33 40ZM34 24C33.2089 24 32.4355 23.7654 31.7777 23.3259C31.1199 22.8864 30.6072 22.2616 30.3045 21.5307C30.0017 20.7998 29.9225 19.9956 30.0769 19.2196C30.2312 18.4437 30.6122 17.731 31.1716 17.1716C31.731 16.6122 32.4437 16.2312 33.2196 16.0769C33.9956 15.9225 34.7998 16.0017 35.5307 16.3045C36.2616 16.6072 36.8864 17.1199 37.3259 17.7777C37.7654 18.4355 38 19.2089 38 20C38 21.0609 37.5786 22.0783 36.8284 22.8284C36.0783 23.5786 35.0609 24 34 24ZM22 24C21.2089 24 20.4355 23.7654 19.7777 23.3259C19.1199 22.8864 18.6072 22.2616 18.3045 21.5307C18.0017 20.7998 17.9225 19.9956 18.0769 19.2196C18.2312 18.4437 18.6122 17.731 19.1716 17.1716C19.731 16.6122 20.4437 16.2312 21.2196 16.0769C21.9956 15.9225 22.7998 16.0017 23.5307 16.3045C24.2616 16.6072 24.8864 17.1199 25.3259 17.7777C25.7654 18.4355 26 19.2089 26 20C26 21.0609 25.5786 22.0783 24.8284 22.8284C24.0783 23.5786 23.0609 24 22 24ZM39 32H34.317C34.1484 31.9995 33.9827 31.9564 33.8352 31.8747C33.6877 31.793 33.5633 31.6754 33.4735 31.5327C33.3837 31.39 33.3314 31.2269 33.3215 31.0586C33.3117 30.8903 33.3445 30.7222 33.417 30.57C33.8014 29.7678 34.0006 28.8895 34 28C33.9984 27.4417 33.9189 26.8864 33.764 26.35C33.7178 26.1894 33.7126 26.0197 33.7489 25.8566C33.7851 25.6934 33.8617 25.5419 33.9717 25.416C34.0816 25.2901 34.2213 25.1937 34.378 25.1357C34.5348 25.0777 34.7036 25.0599 34.869 25.084C36.2891 25.2964 37.5866 26.0093 38.5274 27.0941C39.4683 28.1789 39.9905 29.5641 40 31C40 31.2652 39.8946 31.5196 39.7071 31.7071C39.5196 31.8946 39.2652 32 39 32Z" fill="#16CDC7"/>
</g>
<defs>
<clipPath id="clip0_40_5234">
<rect width="24" height="24" fill="white" transform="translate(16 16)"/>
</clipPath>
</defs>
</svg>
