<svg width="57" height="56" viewBox="0 0 57 56" fill="none" xmlns="http://www.w3.org/2000/svg">
<rect x="0.166748" width="56" height="56" rx="28" fill="#16CDC7" fill-opacity="0.2"/>
<g clip-path="url(#clip0_45_2442)">
<path d="M28.1667 32C27.3756 32 26.6023 31.7654 25.9445 31.3259C25.2867 30.8864 24.774 30.2616 24.4712 29.5307C24.1685 28.7998 24.0893 27.9956 24.2436 27.2196C24.3979 26.4437 24.7789 25.731 25.3383 25.1716C25.8977 24.6122 26.6105 24.2312 27.3864 24.0769C28.1623 23.9225 28.9666 24.0017 29.6975 24.3045C30.4284 24.6072 31.0531 25.1199 31.4926 25.7777C31.9322 26.4355 32.1667 27.2089 32.1667 28C32.1667 29.0609 31.7453 30.0783 30.9952 30.8284C30.245 31.5786 29.2276 32 28.1667 32ZM21.8497 32H17.1667C16.9015 32 16.6472 31.8946 16.4596 31.7071C16.2721 31.5196 16.1667 31.2652 16.1667 31C16.1762 29.5641 16.6985 28.1789 17.6393 27.0941C18.5801 26.0093 19.8776 25.2964 21.2977 25.084C21.4628 25.0609 21.631 25.0794 21.787 25.1378C21.9431 25.1962 22.0821 25.2927 22.1914 25.4184C22.3007 25.5442 22.3768 25.6953 22.4128 25.858C22.4489 26.0207 22.4437 26.1898 22.3977 26.35C22.2445 26.8866 22.1668 27.4419 22.1667 28C22.167 28.8898 22.3673 29.7681 22.7527 30.57C22.8252 30.7222 22.8581 30.8903 22.8482 31.0586C22.8383 31.2269 22.7861 31.39 22.6963 31.5327C22.6064 31.6754 22.482 31.793 22.3346 31.8747C22.1871 31.9564 22.0213 31.9995 21.8527 32H21.8497ZM33.1667 40H23.1667C22.9015 40 22.6472 39.8946 22.4596 39.7071C22.2721 39.5196 22.1667 39.2652 22.1667 39C22.1667 37.4087 22.7989 35.8826 23.9241 34.7574C25.0493 33.6321 26.5754 33 28.1667 33C29.758 33 31.2842 33.6321 32.4094 34.7574C33.5346 35.8826 34.1667 37.4087 34.1667 39C34.1667 39.2652 34.0614 39.5196 33.8739 39.7071C33.6863 39.8946 33.432 40 33.1667 40ZM34.1667 24C33.3756 24 32.6023 23.7654 31.9445 23.3259C31.2867 22.8864 30.774 22.2616 30.4712 21.5307C30.1685 20.7998 30.0893 19.9956 30.2436 19.2196C30.3979 18.4437 30.7789 17.731 31.3383 17.1716C31.8977 16.6122 32.6105 16.2312 33.3864 16.0769C34.1623 15.9225 34.9666 16.0017 35.6975 16.3045C36.4284 16.6072 37.0531 17.1199 37.4926 17.7777C37.9322 18.4355 38.1667 19.2089 38.1667 20C38.1667 21.0609 37.7453 22.0783 36.9952 22.8284C36.245 23.5786 35.2276 24 34.1667 24ZM22.1667 24C21.3756 24 20.6023 23.7654 19.9445 23.3259C19.2867 22.8864 18.774 22.2616 18.4712 21.5307C18.1685 20.7998 18.0893 19.9956 18.2436 19.2196C18.3979 18.4437 18.7789 17.731 19.3383 17.1716C19.8977 16.6122 20.6105 16.2312 21.3864 16.0769C22.1623 15.9225 22.9666 16.0017 23.6975 16.3045C24.4284 16.6072 25.0531 17.1199 25.4926 17.7777C25.9322 18.4355 26.1667 19.2089 26.1667 20C26.1667 21.0609 25.7453 22.0783 24.9952 22.8284C24.245 23.5786 23.2276 24 22.1667 24ZM39.1667 32H34.4837C34.3152 31.9995 34.1494 31.9564 34.0019 31.8747C33.8545 31.793 33.73 31.6754 33.6402 31.5327C33.5504 31.39 33.4982 31.2269 33.4883 31.0586C33.4784 30.8903 33.5113 30.7222 33.5837 30.57C33.9682 29.7678 34.1674 28.8895 34.1667 28C34.1651 27.4417 34.0857 26.8864 33.9307 26.35C33.8845 26.1894 33.8793 26.0197 33.9156 25.8566C33.9519 25.6934 34.0285 25.5419 34.1384 25.416C34.2483 25.2901 34.388 25.1937 34.5448 25.1357C34.7015 25.0777 34.8703 25.0599 35.0357 25.084C36.4559 25.2964 37.7534 26.0093 38.6942 27.0941C39.635 28.1789 40.1573 29.5641 40.1667 31C40.1667 31.2652 40.0614 31.5196 39.8739 31.7071C39.6863 31.8946 39.432 32 39.1667 32Z" fill="#16CDC7"/>
</g>
<defs>
<clipPath id="clip0_45_2442">
<rect width="24" height="24" fill="white" transform="translate(16.1667 16)"/>
</clipPath>
</defs>
</svg>
