<svg width="56" height="56" viewBox="0 0 56 56" fill="none" xmlns="http://www.w3.org/2000/svg">
<rect width="56" height="56" rx="28" fill="#635BFF" fill-opacity="0.2"/>
<path d="M39.7747 20.3275L28.1499 16.029C28.0749 15.9903 27.9999 15.9903 27.8874 16.029L16.2625 20.3275C16.1125 20.405 16 20.5211 16 20.7148C16 20.8696 16.1125 21.0245 16.225 21.0633L20.9874 22.8059V23.1931C20.9874 25.8264 22.3749 28.3048 24.5874 29.5827C25.5999 30.1636 26.7624 30.4734 27.9249 30.4734H28.0749C29.2373 30.4734 30.3623 30.1636 31.4123 29.5827C33.6248 28.2661 35.0123 25.8264 35.0123 23.1931V22.8059L36.7748 22.1476V25.4779H36.6623C36.2498 25.4779 35.9498 25.8264 35.9498 26.2137V28.421C35.9498 28.6146 36.0998 28.8082 36.3248 28.8082H37.9747C38.1622 28.8082 38.3497 28.6533 38.3497 28.421V26.2137C38.3497 25.7877 38.0122 25.4779 37.6373 25.4779H37.5248V21.8765L39.7747 21.0633C39.9247 21.0245 39.9997 20.8696 39.9997 20.7148C39.9997 20.5211 39.8872 20.405 39.7747 20.3275Z" fill="#635BFF"/>
<path d="M33.2123 29.041C32.7248 29.5057 32.1998 29.9317 31.5998 30.2802C30.4374 30.9385 29.1999 31.2871 27.9249 31.2871H27.7749C26.4999 31.2871 25.2249 30.9385 24.0999 30.2802C23.4999 29.9317 22.9749 29.5057 22.4874 29.041C19.6375 29.6219 17.5 32.2165 17.5 35.3144V39.6129C17.5 39.8065 17.65 40.0001 17.875 40.0001H37.8248C38.0123 40.0001 38.1998 39.8452 38.1998 39.6129V35.2757C38.1998 32.1777 36.0248 29.6219 33.2123 29.041Z" fill="#635BFF"/>
</svg>
