<svg width="57" height="56" viewBox="0 0 57 56" fill="none" xmlns="http://www.w3.org/2000/svg">
<rect x="0.5" width="56" height="56" rx="28" fill="#F8C20A" fill-opacity="0.2"/>
<path d="M30.5 23V16.46C31.4251 16.8093 32.2653 17.3513 32.965 18.05L36.449 21.536C37.1485 22.2349 37.6909 23.0749 38.04 24H31.5C31.2348 24 30.9804 23.8946 30.7929 23.7071C30.6054 23.5196 30.5 23.2652 30.5 23ZM38.5 26.485V35C38.4984 36.3256 37.9711 37.5964 37.0338 38.5338C36.0964 39.4711 34.8256 39.9984 33.5 40H23.5C22.1744 39.9984 20.9036 39.4711 19.9662 38.5338C19.0289 37.5964 18.5016 36.3256 18.5 35V21C18.5016 19.6744 19.0289 18.4036 19.9662 17.4662C20.9036 16.5289 22.1744 16.0016 23.5 16H28.015C28.178 16 28.339 16.013 28.5 16.024V23C28.5 23.7956 28.8161 24.5587 29.3787 25.1213C29.9413 25.6839 30.7044 26 31.5 26H38.476C38.487 26.161 38.5 26.322 38.5 26.485ZM30.5 35C30.5 34.7348 30.3946 34.4804 30.2071 34.2929C30.0196 34.1054 29.7652 34 29.5 34H24.5C24.2348 34 23.9804 34.1054 23.7929 34.2929C23.6054 34.4804 23.5 34.7348 23.5 35C23.5 35.2652 23.6054 35.5196 23.7929 35.7071C23.9804 35.8946 24.2348 36 24.5 36H29.5C29.7652 36 30.0196 35.8946 30.2071 35.7071C30.3946 35.5196 30.5 35.2652 30.5 35ZM33.5 31C33.5 30.7348 33.3946 30.4804 33.2071 30.2929C33.0196 30.1054 32.7652 30 32.5 30H24.5C24.2348 30 23.9804 30.1054 23.7929 30.2929C23.6054 30.4804 23.5 30.7348 23.5 31C23.5 31.2652 23.6054 31.5196 23.7929 31.7071C23.9804 31.8946 24.2348 32 24.5 32H32.5C32.7652 32 33.0196 31.8946 33.2071 31.7071C33.3946 31.5196 33.5 31.2652 33.5 31Z" fill="#F8C20A"/>
</svg>
