<svg width="57" height="56" viewBox="0 0 57 56" fill="none" xmlns="http://www.w3.org/2000/svg">
<rect x="0.832031" width="56" height="56" rx="28" fill="#00F586" fill-opacity="0.2"/>
<path d="M40.6068 20.3275L28.9819 16.029C28.9069 15.9903 28.8319 15.9903 28.7194 16.029L17.0945 20.3275C16.9445 20.405 16.832 20.5211 16.832 20.7148C16.832 20.8696 16.9445 21.0245 17.057 21.0633L21.8195 22.8059V23.1931C21.8195 25.8264 23.207 28.3048 25.4194 29.5827C26.4319 30.1636 27.5944 30.4734 28.7569 30.4734H28.9069C30.0694 30.4734 31.1944 30.1636 32.2444 29.5827C34.4568 28.2661 35.8443 25.8264 35.8443 23.1931V22.8059L37.6068 22.1476V25.4779H37.4943C37.0818 25.4779 36.7818 25.8264 36.7818 26.2137V28.421C36.7818 28.6146 36.9318 28.8082 37.1568 28.8082H38.8068C38.9943 28.8082 39.1818 28.6533 39.1818 28.421V26.2137C39.1818 25.7877 38.8443 25.4779 38.4693 25.4779H38.3568V21.8765L40.6068 21.0633C40.7568 21.0245 40.8318 20.8696 40.8318 20.7148C40.8318 20.5211 40.7193 20.405 40.6068 20.3275Z" fill="#00F586"/>
<path d="M34.0443 29.041C33.5569 29.5057 33.0319 29.9317 32.4319 30.2802C31.2694 30.9385 30.0319 31.2871 28.7569 31.2871H28.6069C27.3319 31.2871 26.0569 30.9385 24.932 30.2802C24.332 29.9317 23.807 29.5057 23.3195 29.041C20.4695 29.6219 18.332 32.2165 18.332 35.3144V39.6129C18.332 39.8065 18.482 40.0001 18.707 40.0001H38.6568C38.8443 40.0001 39.0318 39.8452 39.0318 39.6129V35.2757C39.0318 32.1777 36.8568 29.6219 34.0443 29.041Z" fill="#00F586"/>
</svg>
