<svg width="57" height="56" viewBox="0 0 57 56" fill="none" xmlns="http://www.w3.org/2000/svg">
<rect x="0.832031" width="56" height="56" rx="28" fill="#635BFF" fill-opacity="0.2"/>
<g clip-path="url(#clip0_40_4145)">
<path d="M37.832 21H35.832V19C35.832 17.346 34.486 16 32.832 16H24.832C23.178 16 21.832 17.346 21.832 19V25H19.832C18.178 25 16.832 26.346 16.832 28V40H40.832V24C40.832 22.346 39.486 21 37.832 21ZM22.832 35H20.832V33H22.832V35ZM22.832 31H20.832V29H22.832V31ZM27.832 35H25.832V33H27.832V35ZM27.832 31H25.832V29H27.832V31ZM27.832 27H25.832V25H27.832V27ZM27.832 23H25.832V21H27.832V23ZM31.832 35H29.832V33H31.832V35ZM31.832 31H29.832V29H31.832V31ZM31.832 27H29.832V25H31.832V27ZM31.832 23H29.832V21H31.832V23ZM36.832 35H34.832V33H36.832V35ZM36.832 31H34.832V29H36.832V31ZM36.832 27H34.832V25H36.832V27Z" fill="#635BFF"/>
</g>
<defs>
<clipPath id="clip0_40_4145">
<rect width="24" height="24" fill="white" transform="translate(16.832 16)"/>
</clipPath>
</defs>
</svg>
