<svg width="187" height="64" viewBox="0 0 187 64" fill="none" xmlns="http://www.w3.org/2000/svg">
<path d="M0 26.6478C0 16.0255 6.44415 6.46509 16.2905 2.47963V2.47963C20.311 0.852276 24.674 0.253635 28.9842 0.73793L69.9185 5.33729L155.437 8.0708C172.921 8.62966 186.805 22.9649 186.805 40.4579V41.0722C186.805 51.1378 182.237 65.6228 172.394 63.5137V63.5137C151 58.9294 71.9074 57.6264 28.6768 57.2561C12.8299 57.1204 0 44.2622 0 28.4148V26.6478Z" fill="#CE2DC8"/>
<path d="M0 33.7683C0 18.1273 13.268 5.73338 28.8933 6.43487C58.7518 7.77536 105.361 8.86342 137.168 4.80293C147.554 3.47705 158.662 4.21385 167.731 5.42328C179.103 6.93995 186.805 17.0382 186.805 28.5113V28.5113C186.805 43.7299 173.506 55.6223 158.297 55.08C140.601 54.4489 118.126 54.844 101.409 59.2433C82.1499 64.3114 46.636 62.1074 23.1649 59.8073C9.8363 58.5012 0 47.1608 0 33.7683V33.7683Z" fill="#F49B36"/>
</svg>
