<svg width="33" height="33" viewBox="0 0 33 33" fill="none" xmlns="http://www.w3.org/2000/svg">
<g id="file-upload 1">
<path id="Vector" d="M27.6322 7.40987L22.8404 2.618C21.1519 0.9295 18.9079 0 16.5209 0H8.93774C5.52637 0 2.75024 2.77612 2.75024 6.1875V26.8125C2.75024 30.2239 5.52637 33 8.93774 33H24.0627C27.4741 33 30.2502 30.2239 30.2502 26.8125V13.7294C30.2502 11.3424 29.3207 9.097 27.6322 7.40987ZM26.6601 8.382C27.4177 9.13963 27.9939 10.0293 28.3692 11H21.3127C20.1756 11 19.2502 10.0746 19.2502 8.9375V1.881C20.221 2.25638 21.1106 2.8325 21.8682 3.59013L26.6601 8.382ZM28.8752 26.8125C28.8752 29.4662 26.7165 31.625 24.0627 31.625H8.93774C6.28399 31.625 4.12524 29.4662 4.12524 26.8125V6.1875C4.12524 3.53375 6.28399 1.375 8.93774 1.375H16.5209C16.9801 1.375 17.4325 1.41625 17.8752 1.496V8.9375C17.8752 10.8322 19.418 12.375 21.3127 12.375H28.7542C28.834 12.8177 28.8752 13.2701 28.8752 13.7294V26.8125ZM21.8806 19.4562C22.146 19.7271 22.1405 20.163 21.8696 20.4284C21.7362 20.559 21.5616 20.625 21.3884 20.625C21.2096 20.625 21.0322 20.5562 20.8975 20.4188L17.4394 16.885C17.3624 16.808 17.2785 16.7434 17.1877 16.6897V26.8139C17.1877 27.1934 16.8797 27.5014 16.5002 27.5014C16.1207 27.5014 15.8127 27.1934 15.8127 26.8139V16.6911C15.722 16.7461 15.6354 16.8121 15.5556 16.8919L12.103 20.4201C11.8376 20.6924 11.4031 20.6979 11.1309 20.4311C10.86 20.1658 10.8545 19.7299 11.1199 19.459L14.578 15.9253C15.106 15.3972 15.7962 15.1319 16.4865 15.1277C16.4906 15.1277 16.4947 15.1277 16.4989 15.1277C16.503 15.1277 16.5071 15.1277 16.5112 15.1277C17.2015 15.1305 17.8904 15.3945 18.4142 15.9198L21.8779 19.459L21.8806 19.4562Z" fill="white"/>
</g>
</svg>
