<svg width="188" height="89" viewBox="0 0 188 89" fill="none" xmlns="http://www.w3.org/2000/svg">
<path d="M81.4128 70.0609H56.7907V24.6316L35.9738 54.9178L17.0436 24.6316V70.0289H0V0.0320889H18.9302L35.9738 28.4014L54.9041 0.0320889H82.1163C78.8546 2.58789 76.3285 6.07016 74.9855 10.0955C74.4738 11.5012 74.0901 13.1305 73.9302 14.9196C73.8663 15.5266 73.8663 16.1336 73.9302 16.7406V16.8364C73.9302 22.0758 75.8169 26.8679 78.9826 30.5738C74.4099 32.6824 66.2878 38.2093 66.2878 45.4614V54.9178C66.8953 58.6876 70.8285 67.0259 81.4128 70.0609Z" fill="white"/>
<path d="M170.436 43.5444C184.058 39.0078 186.233 26.5164 185.593 20.8297C184.09 4.18511 169.797 0 162.858 0H108.242C113.23 3.89759 116.46 9.96759 116.46 16.7724C116.46 25.2704 111.439 32.6183 104.212 36.0048L111.727 43.5124L117.419 32.1711L128.771 37.8577L119.306 53.0008L136.349 70.0288H142.041V47.3142H153.393L168.55 70.0288H187.48L170.436 43.5444ZM168.518 26.5164C168.518 28.4013 167.015 32.5864 160.939 34.0879H142.009V13.2901H160.939C163.465 13.9291 168.518 16.3252 168.518 20.8617V26.5164Z" fill="white"/>
<path d="M88.9916 39.7747L119.306 70.0609H96.5701L106.035 66.2911L96.5701 56.8346H88.9916C84.4509 56.8346 82.0527 53.0648 81.4131 51.148C79.9102 43.5445 85.8259 40.4136 88.9916 39.7747Z" fill="white"/>
<path d="M92.061 12.875C91.9011 12.9709 91.7412 13.0667 91.5813 13.1945C90.8778 13.8015 90.5261 14.6321 90.1424 15.4627C89.8226 16.1017 89.3429 16.517 88.6714 16.7087C88.5755 16.7407 88.4796 16.7726 88.2877 16.8365C89.343 17.0601 89.9505 17.6352 90.3023 18.5297C90.4621 18.8811 90.654 19.2326 90.8778 19.584C91.1976 20.0632 91.5494 20.5104 92.1249 20.798C89.7906 18.1463 89.7906 15.5266 92.061 12.875Z" fill="white"/>
<path d="M95.6426 11.8209C93.4682 11.8209 91.6455 13.3544 91.1978 14.5684C94.1397 14.5684 97.0815 14.5684 99.9914 14.5684C99.5117 13.1947 97.6571 11.8528 95.6426 11.8209ZM95.7705 12.8113C95.8344 12.9071 95.9943 13.0349 96.0263 13.1947C96.0583 13.4183 95.8984 13.5461 95.6745 13.5461C95.4187 13.5461 95.3228 13.3863 95.3228 13.1627C95.2908 12.9391 95.4507 12.8432 95.7705 12.8113ZM95.5147 14.3767C94.7472 14.3767 94.2036 13.9614 93.7879 13.3224C95.003 14.185 96.1862 14.0892 97.4013 13.3224C96.9536 13.9933 96.3461 14.3767 95.5147 14.3767Z" fill="white"/>
<path d="M95.5465 21.3413C95.8023 20.926 96.0581 20.5746 96.282 20.2231C95.7703 20.1592 95.2587 20.1273 94.779 20.0634C95.0029 20.4787 95.2587 20.894 95.5465 21.3413Z" fill="white"/>
<path d="M96.8898 18.2422C96.7938 17.9867 96.602 17.763 96.4101 17.5713C96.2183 17.3796 95.9625 17.2838 95.7386 17.156C95.9944 16.9324 96.2822 16.7088 96.506 16.4212C96.602 16.2934 96.634 15.974 96.57 15.8142C96.506 15.6545 96.2502 15.5267 96.0584 15.5267C95.8026 15.5267 95.5787 15.6545 95.3229 15.7503C95.1311 15.8142 94.9712 15.942 94.7793 15.974C94.5555 16.0378 94.3316 15.974 94.2357 15.7184C94.1398 15.4628 94.2677 15.3031 94.4915 15.1753C94.7153 15.0794 94.9072 14.9836 95.227 14.8558C93.9799 14.8558 92.7968 14.8558 91.5816 14.8558C92.3811 16.1337 93.1485 17.3796 93.9159 18.5936C93.9479 18.5936 93.9479 18.5617 93.9799 18.5617C93.9159 18.2103 93.852 17.8908 93.82 17.5394H93.852C94.1078 17.9867 94.3636 18.4339 94.6514 18.8812C94.9392 19.3284 95.3869 19.5201 95.9305 19.5201C96.634 19.5521 97.1136 18.9451 96.8898 18.2422Z" fill="white"/>
<path d="M97.4333 18.4016C98.1687 17.2515 98.9042 16.1014 99.6716 14.8874C98.4885 14.8874 97.4013 14.8874 96.2821 14.8874C97.3053 15.5583 97.4972 16.4848 96.9856 17.0918C97.1454 17.571 97.3053 17.9863 97.4333 18.4016Z" fill="white"/>
<path d="M98.2646 12.3C98.3925 12.3639 98.5524 12.3639 98.6803 12.3639H98.7123C98.1687 11.8208 97.4652 11.5333 96.7617 11.1819C96.1861 10.8944 95.8024 10.4471 95.5786 9.84009C95.5466 9.74425 95.5146 9.64841 95.4507 9.48867C95.2588 10.479 94.6832 11.0222 93.8838 11.3736C93.5321 11.5014 93.2123 11.693 92.8925 11.8847C92.6687 12.0125 92.4769 12.1723 92.285 12.332C92.6687 12.332 93.0204 12.2681 93.4361 12.1084C95.0989 11.3416 96.6978 11.4375 98.2646 12.3Z" fill="white"/>
<path d="M100.887 15.0156C100.727 14.6323 100.503 14.2489 100.247 13.8975C99.9594 13.4822 99.6396 13.0988 99.128 12.8432C101.462 15.5268 101.462 18.1465 99.1919 20.7662C99.3838 20.6384 99.5757 20.5106 99.7355 20.3828C100.375 19.7758 100.727 18.9771 101.111 18.2104C101.366 17.6992 101.75 17.3159 102.262 17.0603C102.454 16.9645 102.645 16.9006 102.933 16.8047C101.846 16.5811 101.27 15.9102 100.887 15.0156Z" fill="white"/>
<path d="M100.119 14.7598C98.6483 17.0919 97.1454 19.3921 95.6425 21.7563C96.8256 21.884 98.7442 21.1493 99.7994 19.5838C100.951 17.7628 100.695 15.6862 100.119 14.7598Z" fill="white"/>
<path d="M95.6427 6.80492C90.1107 6.80492 85.634 11.2776 85.634 16.8045C85.634 22.3314 90.1107 26.804 95.6427 26.804C101.175 26.804 105.651 22.3314 105.651 16.8045C105.619 11.3095 101.143 6.80492 95.6427 6.80492ZM102.166 19.5839C102.006 19.9353 101.814 20.2868 101.59 20.5743C101.175 21.1174 100.599 21.341 99.9915 21.4049C99.9915 21.4688 99.9915 21.5007 99.9915 21.5646C99.9276 22.3633 99.4479 22.9065 98.7444 23.2579C98.1049 23.5773 97.4654 23.8968 96.8578 24.2482C96.4741 24.4719 96.1224 24.7594 95.7386 25.0469C94.9072 24.2482 93.82 23.769 92.7328 23.2259C91.9974 22.8425 91.5177 22.1716 91.4857 21.373C91.3578 21.373 91.2299 21.373 91.102 21.373C90.2386 21.3091 89.6631 20.7979 89.2793 20.0312C88.9276 19.3603 88.6078 18.6574 88.1921 17.9865C87.9363 17.5712 87.6485 17.1879 87.3288 16.8045C88.1921 15.91 88.7038 14.7279 89.2793 13.5778C89.6631 12.7791 90.3985 12.2999 91.2299 12.236C91.2299 12.1721 91.2299 12.1402 91.2299 12.0763C91.2939 11.2776 91.7735 10.7345 92.477 10.383C93.1165 10.0636 93.7561 9.74409 94.3636 9.39267C94.7474 9.16904 95.0991 8.88151 95.4828 8.59398C96.3142 9.39267 97.4014 9.87188 98.4886 10.415C99.2561 10.7984 99.7038 11.4692 99.7357 12.2999C99.8636 12.2999 100.024 12.2999 100.151 12.2999C100.983 12.3638 101.494 12.8749 101.878 13.6097C102.326 14.4404 102.774 15.2391 103.221 16.0697C103.381 16.3572 103.605 16.5809 103.829 16.8684C103.125 17.6032 102.646 18.5935 102.166 19.5839Z" fill="white"/>
<path d="M92.9884 21.341C92.8605 21.2771 92.7007 21.2771 92.5728 21.2771H92.5408C93.0844 21.8202 93.7879 22.1077 94.4914 22.4592C95.0669 22.7467 95.4507 23.1939 95.6745 23.8009C95.7065 23.8968 95.7385 23.9926 95.8024 24.1524C95.9943 23.162 96.5698 22.6189 97.3693 22.2675C97.721 22.1397 98.0408 21.948 98.3605 21.7563C98.5844 21.6285 98.7762 21.4688 98.9681 21.309C98.5524 21.309 98.2007 21.3729 97.785 21.5646C96.1222 22.2994 94.5233 22.1716 92.9884 21.341Z" fill="white"/>
<path d="M95.4507 21.7241C94.0117 19.4239 92.5728 17.0918 91.1019 14.7277C90.3984 16.4528 90.4943 18.0183 91.4216 19.5198C92.349 20.9574 93.692 21.6922 95.3867 21.82C95.4187 21.7881 95.4187 21.7561 95.4507 21.7241Z" fill="white"/>
<path d="M3.45358 82.2007H8.53789V84.0856H3.48557V82.2007H3.45358ZM3.64545 86.5136H9.36928V88.4624H1.2472V77.9516H9.17743V79.9004H3.64545V86.5136Z" fill="white"/>
<path d="M23.0234 88.4624V77.9516H27.788C28.9391 77.9516 29.9304 78.1753 30.7938 78.6226C31.6571 79.0379 32.3287 79.6449 32.8403 80.4436C33.3199 81.2103 33.5757 82.1368 33.5757 83.223C33.5757 84.2772 33.3199 85.2037 32.8403 86.0024C32.3606 86.7691 31.6571 87.3761 30.7938 87.8234C29.9304 88.2387 28.9071 88.4624 27.788 88.4624H23.0234ZM25.4537 86.4816H27.66C28.3635 86.4816 28.9711 86.3538 29.4827 86.0982C29.9943 85.8427 30.41 85.4593 30.6978 84.9481C30.9856 84.4689 31.1455 83.8939 31.1455 83.223C31.1455 82.5521 30.9856 81.977 30.6978 81.4978C30.41 81.0186 30.0263 80.6352 29.4827 80.3797C28.9711 80.1241 28.3635 79.9643 27.66 79.9643H25.4537V86.4816Z" fill="white"/>
<path d="M51.7703 88.6542C50.2674 88.6542 49.1162 88.2389 48.2848 87.4082C47.4534 86.5776 47.0377 85.3955 47.0377 83.862V77.9837H49.468V83.7662C49.468 84.7566 49.6598 85.4914 50.0755 85.9386C50.4912 86.3859 51.0668 86.6095 51.8023 86.6095C52.5377 86.6095 53.1133 86.3859 53.529 85.9386C53.9447 85.4914 54.1366 84.7885 54.1366 83.7662V77.9837H56.5348V83.862C56.5348 85.3955 56.1191 86.5776 55.2877 87.4082C54.4244 88.2389 53.2732 88.6542 51.7703 88.6542Z" fill="white"/>
<path d="M75.6889 88.6543C74.8895 88.6543 74.122 88.5265 73.4185 88.2709C72.715 88.0153 72.1395 87.6319 71.6278 87.1208C71.1162 86.6416 70.7325 86.0665 70.4127 85.3956C70.1249 84.7247 69.997 84.0219 69.997 83.2232C69.997 82.4245 70.1249 81.7217 70.4127 81.0508C70.7005 80.3799 71.1162 79.8048 71.6278 79.3256C72.1395 78.8464 72.747 78.463 73.4505 78.2074C74.154 77.9519 74.8895 77.7921 75.7209 77.7921C76.6162 77.7921 77.4476 77.9519 78.1831 78.2713C78.9185 78.5908 79.5581 79.0381 80.0377 79.6451L78.4709 81.0827C78.1191 80.6674 77.7034 80.3799 77.2558 80.1562C76.8081 79.9326 76.3284 79.8368 75.8168 79.8368C75.3372 79.8368 74.8895 79.9326 74.4738 80.0923C74.0581 80.2521 73.7063 80.4757 73.4185 80.7952C73.1308 81.0827 72.8749 81.4341 72.715 81.8494C72.5552 82.2648 72.4592 82.712 72.4592 83.2232C72.4592 83.7343 72.5552 84.1816 72.715 84.5969C72.8749 85.0123 73.1308 85.3637 73.4185 85.6512C73.7063 85.9387 74.0581 86.1943 74.4738 86.354C74.8895 86.5138 75.3372 86.6096 75.8168 86.6096C76.3284 86.6096 76.8081 86.5138 77.2558 86.3221C77.7034 86.0985 78.0871 85.8109 78.4709 85.3637L80.0377 86.8013C79.5261 87.4083 78.9185 87.8875 78.1831 88.207C77.4156 88.4945 76.5842 88.6543 75.6889 88.6543Z" fill="white"/>
<path d="M91.8054 88.4624L96.474 77.9516H98.8723L103.573 88.4624H101.015L97.1775 79.1976H98.1368L94.2676 88.4624H91.8054ZM94.1397 86.226L94.7793 84.3731H100.183L100.855 86.226H94.1397Z" fill="white"/>
<path d="M118.027 88.4624V79.9324H114.669V77.9516H123.814V79.9324H120.457V88.4624H118.027Z" fill="white"/>
<path d="M136.829 88.4624V77.9516H139.259V88.4624H136.829Z" fill="white"/>
<path d="M158.573 88.6543C157.741 88.6543 156.974 88.5265 156.27 88.2389C155.567 87.9834 154.959 87.6 154.448 87.0888C153.936 86.6096 153.552 86.0346 153.233 85.3637C152.945 84.6928 152.817 83.9899 152.817 83.1912C152.817 82.4245 152.945 81.6897 153.233 81.0188C153.52 80.3479 153.936 79.7729 154.448 79.2937C154.959 78.8144 155.567 78.4311 156.27 78.1436C156.974 77.888 157.741 77.7282 158.541 77.7282C159.372 77.7282 160.14 77.856 160.811 78.1436C161.515 78.3991 162.122 78.7825 162.634 79.2937C163.145 79.7729 163.561 80.3479 163.849 81.0188C164.137 81.6578 164.296 82.3926 164.296 83.1912C164.296 83.958 164.137 84.6928 163.849 85.3637C163.561 86.0346 163.145 86.6096 162.634 87.0888C162.122 87.5681 161.515 87.9514 160.811 88.207C160.14 88.5265 159.372 88.6543 158.573 88.6543ZM158.541 86.5777C159.02 86.5777 159.436 86.4818 159.82 86.3221C160.235 86.1624 160.555 85.9387 160.875 85.6192C161.163 85.3317 161.419 84.9803 161.578 84.565C161.738 84.1497 161.834 83.7024 161.834 83.1912C161.834 82.6801 161.738 82.2328 161.578 81.8175C161.419 81.4022 161.195 81.0508 160.875 80.7633C160.587 80.4757 160.235 80.2201 159.852 80.0604C159.436 79.9007 159.02 79.8048 158.541 79.8048C158.061 79.8048 157.645 79.9007 157.23 80.0604C156.846 80.2201 156.494 80.4438 156.206 80.7633C155.919 81.0827 155.663 81.4022 155.503 81.8175C155.343 82.2328 155.247 82.6801 155.247 83.1912C155.247 83.6705 155.343 84.1497 155.503 84.565C155.663 84.9803 155.919 85.3317 156.206 85.6192C156.494 85.9068 156.846 86.1624 157.262 86.3221C157.645 86.4818 158.093 86.5777 158.541 86.5777Z" fill="white"/>
<path d="M177.823 88.4624V77.9516H179.837L186.041 85.5232H185.05V77.9516H187.448V88.4624H185.465L179.262 80.8908H180.253V88.4624H177.823Z" fill="white"/>
</svg>
